<?xml version="1.0" standalone="no"?>
<!DOCTYPE svg PUBLIC "-//W3C//DTD SVG 1.1//EN" "http://www.w3.org/Graphics/SVG/1.1/DTD/svg11.dtd" >
<svg xmlns="http://www.w3.org/2000/svg">
<metadata>
This is a custom SVG webfont generated by Font Squirrel.
Copyright   : Copyright c 2007 by Studio Kmzero All rights reserved
Designer    : Francesco Canovaro Cosimo Lorenzo Pancini Katiuscia Mari
Foundry     : Studio Kmzero
Foundry URL : wwwzerofontscom
</metadata>
<defs>
<font id="AntipastoRegular" horiz-adv-x="247" >
<font-face units-per-em="2048" ascent="1638" descent="-410" />
<missing-glyph horiz-adv-x="606" />
<glyph unicode=" "  horiz-adv-x="606" />
<glyph unicode="&#x09;" horiz-adv-x="606" />
<glyph unicode="&#xa0;" horiz-adv-x="606" />
<glyph unicode="!" horiz-adv-x="229" d="M31 84q0 35 24.5 59.5t59.5 24.5t59.5 -24.5t24.5 -59.5t-24.5 -59.5t-59.5 -24.5t-59.5 24.5t-24.5 59.5zM51 410v835q0 27 18.5 45.5t45.5 18.5t45 -18.5t18 -45.5v-835q0 -27 -18.5 -45.5t-44.5 -18.5q-27 0 -45.5 18.5t-18.5 45.5z" />
<glyph unicode="&#x22;" horiz-adv-x="499" d="M2 985v315q0 27 18.5 45.5t45.5 18.5t45 -18.5t18 -45.5v-315q0 -23 -18.5 -43t-44.5 -20q-27 0 -45.5 18t-18.5 45zM371 985v315q0 27 18.5 45.5t44.5 18.5q27 0 45.5 -18.5t18.5 -45.5v-315q0 -23 -18.5 -43t-45.5 -20t-45 18t-18 45z" />
<glyph unicode="#" horiz-adv-x="1214" d="M20 477q0 27 18.5 45.5t45.5 18.5h197l94 295h-152q-27 0 -45 18t-18 45t18.5 45.5t44.5 18.5h193l110 348q8 25 32 37t48 4q25 -10 37 -33t4 -47l-98 -309h307l111 348q8 25 31.5 37t48.5 4q25 -10 37 -33t3 -47l-98 -309h141q27 0 45.5 -18.5t18.5 -45.5t-18.5 -45 t-45.5 -18h-182l-94 -295h147q27 0 45.5 -18.5t18.5 -45.5t-18.5 -45t-45.5 -18h-188l-119 -371q-10 -25 -32.5 -37t-47.5 -4q-27 8 -39 31.5t-2 48.5l107 332h-307l-119 -371q-10 -25 -32.5 -37t-47.5 -4q-27 8 -39 31.5t-2 48.5l107 332h-156q-27 0 -45.5 18t-18.5 45z M414 541h307l94 295h-307z" />
<glyph unicode="$" horiz-adv-x="905" d="M34 261.5q-7 -25.5 7 -50.5q25 -47 71 -86t102 -66.5t118.5 -43t120.5 -15.5q82 0 157.5 29.5t134 82t93 124t34.5 153.5t-25.5 141.5t-71.5 104.5t-109.5 77.5t-141.5 61.5q-39 14 -94 32.5t-106.5 43t-87 57.5t-35.5 74q0 57 24.5 95t62.5 60.5t83 33t86 10.5 q27 0 60.5 -3t67 -15.5t66.5 -36t58 -64.5q14 -23 40.5 -31t51.5 8q25 14 29 46t-13 55q-37 51 -81 83.5t-91 51t-95 26t-93 7.5q-68 0 -136.5 -21.5t-124 -63.5t-90 -102.5t-34.5 -138.5q0 -68 36.5 -120t93 -91t125 -66.5t130.5 -46.5q61 -20 114.5 -44.5t92 -55.5t60 -72 t21.5 -96t-24.5 -103t-64.5 -83t-93 -55.5t-108 -20.5q-35 0 -79 9t-87 28.5t-79 47.5t-54 64q-14 25 -40 32t-50 -7q-25 -14 -32 -39.5zM389 -139v1566q0 27 18.5 45.5t45.5 18.5t45 -18.5t18 -45.5v-1566q0 -27 -18.5 -45.5t-44.5 -18.5q-27 0 -45.5 18.5t-18.5 45.5z" />
<glyph unicode="%" horiz-adv-x="1271" d="M29 1065q0 61 23.5 114.5t63.5 93.5t93 63.5t115 23.5q61 0 114.5 -23.5t93 -63.5t63 -93.5t23.5 -114.5t-23.5 -114.5t-63 -93.5t-93 -63.5t-114.5 -23.5t-114.5 23.5t-93.5 63.5t-63.5 93.5t-23.5 114.5zM156 1065q0 -70 49 -119t119 -49t119 49t49 119t-49.5 119 t-118.5 49q-70 0 -119 -49t-49 -119zM362 80l410 1229q6 25 29.5 38t48.5 7q25 -10 37 -33t6 -47l-410 -1231q-10 -25 -32.5 -37t-47.5 -6q-27 8 -39 31.5t-2 48.5zM651 293q0 61 23.5 114.5t63.5 93.5t93.5 63.5t114.5 23.5t114.5 -23.5t93.5 -63.5t63.5 -93.5t23.5 -114.5 t-23.5 -114.5t-63.5 -93.5t-93 -63.5t-115 -23.5q-61 0 -114.5 23.5t-93.5 63.5t-63.5 93.5t-23.5 114.5zM778 293q0 -70 49.5 -119t118.5 -49q70 0 119 49t49 119t-49 119t-119 49t-119 -49t-49 -119z" />
<glyph unicode="&#x26;" horiz-adv-x="1097" d="M37 365q0 98 46 181t124 134q-2 0 -2 2q-66 47 -106 123t-40 164q0 74 28 138t76 112.5t112.5 76t138.5 27.5t138 -27.5t112.5 -76t76 -113t27.5 -137.5q0 -66 -23.5 -125.5t-63.5 -106.5t-95.5 -78.5t-118.5 -40.5l303 -270l174 158q20 16 46 15t42 -21t15.5 -47 t-21.5 -43l-162 -148l174 -164q20 -16 21.5 -42.5t-15.5 -47.5q-16 -20 -42.5 -21t-47.5 15l-184 174l-76 -70q-55 -53 -124.5 -86.5t-155.5 -33.5q-78 0 -146.5 29.5t-120 80.5t-81 121t-29.5 148zM162 365q0 -53 19.5 -98.5t54 -80t79.5 -54t99 -19.5q63 0 123.5 38.5 t138.5 110.5l-369 330q-66 -31 -105.5 -92t-39.5 -135zM188 969q0 -47 16.5 -87t47.5 -71t72 -48.5t90 -19.5q47 0 88 17.5t71.5 48.5t48 72t17.5 88t-17.5 88t-48 71.5t-71.5 48t-88 17.5t-88 -17.5t-72 -48t-48.5 -71.5t-17.5 -88z" />
<glyph unicode="'" horiz-adv-x="241" d="M57 989v316q0 27 18.5 45t45.5 18t45 -18.5t18 -44.5v-316q0 -27 -18.5 -45t-44.5 -18q-27 0 -45.5 18t-18.5 45z" />
<glyph unicode="(" horiz-adv-x="493" d="M31 164v981q0 74 27.5 140.5t76.5 116.5t114.5 79.5t139.5 31.5q33 0 52.5 -18t19.5 -45t-18.5 -45.5t-45.5 -18.5q-49 0 -93 -19t-76.5 -52t-51 -77t-18.5 -93v-981q0 -49 18.5 -93t51 -77t76.5 -52.5t93 -19.5q27 0 45.5 -18.5t18.5 -44.5q0 -27 -18.5 -45.5 t-45.5 -18.5q-76 0 -142.5 29t-116.5 79t-78.5 117.5t-28.5 143.5z" />
<glyph unicode=")" horiz-adv-x="495" d="M33 -141q0 27 18.5 45t44.5 18q49 0 93 19.5t77 52.5t51.5 77t18.5 93v981q0 49 -18.5 93t-51.5 77t-77 52t-93 19q-27 0 -45 18.5t-18 45.5t19.5 45t51.5 18q74 -2 139.5 -31.5t115 -79.5t77 -116.5t27.5 -140.5v-981q0 -76 -28.5 -143.5t-79 -117.5t-117 -79 t-142.5 -29q-27 0 -45 18.5t-18 45.5z" />
<glyph unicode="*" horiz-adv-x="555" d="M35 1051.5q6 25.5 28 38.5l91 51l-91 51q-20 10 -26 36.5t6 49.5t36.5 29t47.5 -7l88 -51v103q0 27 18.5 45t42.5 18q27 0 45.5 -18.5t18.5 -44.5v-105l90 53q23 12 46.5 8.5t37.5 -28.5q12 -20 6 -46t-28 -40l-89 -53l91 -51q23 -12 27.5 -36t-5.5 -46 q-14 -23 -37.5 -30t-46.5 5l-92 51v-104q0 -25 -18.5 -43.5t-45.5 -18.5q-25 0 -43 18.5t-18 43.5v102l-88 -51q-23 -10 -46.5 -5t-39.5 30q-12 20 -6 45.5z" />
<glyph unicode="+" horiz-adv-x="776" d="M8 635q0 27 18.5 45t45.5 18h252v254q0 27 18 45.5t45 18.5t45.5 -18.5t18.5 -45.5v-254h254q27 0 45 -18t18 -45t-18.5 -45.5t-44.5 -18.5h-254v-254q0 -27 -18.5 -45t-45.5 -18t-45 18.5t-18 44.5v254h-252q-27 0 -45.5 18.5t-18.5 45.5z" />
<glyph unicode="," horiz-adv-x="241" d="M57 80q0 27 18.5 45t45.5 18t45 -18.5t18 -44.5v-316q0 -23 -18.5 -43t-44.5 -20q-27 0 -45.5 18.5t-18.5 44.5v316z" />
<glyph unicode="-" horiz-adv-x="868" d="M55 637q0 27 18.5 45t45.5 18h631q27 0 45 -18t18 -45t-18.5 -45.5t-44.5 -18.5h-631q-27 0 -45.5 18.5t-18.5 45.5z" />
<glyph unicode="." d="M39 84q0 35 24.5 59.5t59.5 24.5t59.5 -24.5t24.5 -59.5t-24.5 -59.5t-59.5 -24.5t-59.5 24.5t-24.5 59.5z" />
<glyph unicode="/" horiz-adv-x="548" d="M16 82l394 1229q8 25 31.5 37t47.5 4q25 -10 37.5 -33t3.5 -47l-393 -1229q-10 -25 -32.5 -37t-47.5 -4q-27 8 -39 31.5t-2 48.5z" />
<glyph unicode="0" horiz-adv-x="1382" d="M39 651q0 135 51 254t139 208t207 140.5t254 51.5t254 -51.5t208 -140.5t140 -208t51 -254t-51 -253.5t-140 -207t-208 -139.5t-254 -51t-254 51t-207 139.5t-139 207t-51 253.5zM166 651q0 -109 41 -205t111.5 -166.5t167 -111.5t204.5 -41q109 0 205 41t168 111.5 t113 167t41 204.5q0 109 -41 205t-113 168t-168 113t-205 41t-205 -41t-166.5 -113t-111.5 -168t-41 -205z" />
<glyph unicode="1" horiz-adv-x="438" d="M37 1108q6 25 29 39l229 145q39 27 75 10.5t36 -57.5v-1182q0 -27 -18.5 -45t-45.5 -18t-45 18.5t-18 44.5v1065l-148 -90q-23 -14 -48.5 -7t-39.5 30q-12 22 -6 47z" />
<glyph unicode="2" horiz-adv-x="911" d="M44 85q9 19 30 40l454 432q135 125 178.5 199.5t43.5 154.5q0 119 -78 201t-201 82q-125 0 -201 -84q-43 -49 -61 -113q-6 -27 -20.5 -44t-41.5 -17t-44 17.5t-17 43.5q0 96 107.5 205t287.5 109q164 0 277.5 -119t113.5 -289q0 -100 -48 -192.5t-152 -186.5l-430 -399 h565q27 0 45 -18.5t18 -45.5t-18 -44t-45 -17h-690q-16 0 -37 7t-35 36q-10 23 -1 42z" />
<glyph unicode="3" horiz-adv-x="886" d="M33 397q0 27 18.5 45.5t44.5 18.5q27 0 45.5 -18.5t18.5 -45.5q0 -59 22.5 -110t60.5 -89t89 -60.5t110 -22.5q57 0 109.5 22.5t90.5 60.5t60.5 89t22.5 110q0 57 -21.5 107.5t-58.5 88.5t-86 61.5t-106 25.5h-2h-9q-27 0 -45 18.5t-18 44.5q0 27 18.5 45.5t44.5 18.5h7 h2q74 4 126 57.5t52 128.5q0 78 -54.5 132.5t-132.5 54.5t-132 -54.5t-54 -130.5q0 -29 -18.5 -46t-47.5 -17t-46 17.5t-17 45.5q0 63 24.5 121t67.5 101t100.5 67.5t122.5 24.5q66 0 123.5 -24.5t100.5 -67.5t67.5 -100.5t24.5 -123.5q0 -74 -31 -136t-82 -105 q92 -53 149.5 -146.5t57.5 -208.5q0 -84 -33 -158.5t-88 -130t-130 -88t-159 -32.5t-158.5 32.5t-130 88t-88 130t-32.5 158.5z" />
<glyph unicode="4" horiz-adv-x="856" d="M28 385q1 23 15 45l526 852q14 20 34 25.5t38 -3t30.5 -25.5t12.5 -40v-809h82q27 0 45 -18.5t18 -44.5q0 -27 -18 -45.5t-45 -18.5h-82v-233q0 -27 -18.5 -45.5t-44.5 -18.5q-27 0 -45.5 18.5t-18.5 45.5v233h-455q-23 0 -40 11.5t-26 29.5t-8 41zM188 430h369v584z" />
<glyph unicode="5" horiz-adv-x="940" d="M38 308q5 32 40 40q31 8 52.5 -9t37.5 -44q41 -76 116.5 -122t168.5 -46q68 0 126 25.5t102 69.5t69.5 102.5t25.5 126.5t-25.5 126t-69.5 102t-102.5 69.5t-125.5 25.5q-29 0 -61 -4t-62.5 -14.5t-57 -26.5t-43.5 -41q-14 -25 -32.5 -40t-44.5 -11q-25 4 -38.5 24.5 t-9.5 47.5l89 538v2q2 25 20 42.5t43 17.5h506q27 0 45 -18.5t18 -45.5t-18.5 -45t-44.5 -18h-453l-53 -326q94 45 197 45q92 0 174 -36t143 -97t97 -143t36 -174t-36 -174t-97 -143.5t-143 -97.5t-174 -36q-131 0 -236.5 66.5t-165.5 175.5q-18 34 -13 66z" />
<glyph unicode="6" horiz-adv-x="925" d="M25 438q0 70 22.5 134.5t61.5 123.5l372 584q14 23 40 29t48 -9q23 -14 29 -39.5t-8 -48.5l-223 -348q23 4 46 7t48 3q90 0 170 -33.5t139 -93t94 -139.5t35 -170t-35 -170t-94 -139t-139 -94t-170 -35t-170 35t-139.5 94t-93 139t-33.5 170zM152 438q0 -66 24.5 -122 t65.5 -97t97 -65.5t122 -24.5q63 0 120.5 24.5t99.5 65.5t66.5 97.5t24.5 121.5q0 63 -24.5 120.5t-66.5 99.5t-99.5 67t-120.5 25q-66 0 -122 -25t-97 -67t-65.5 -99.5t-24.5 -120.5z" />
<glyph unicode="7" horiz-adv-x="776" d="M20 1243q0 27 18.5 45.5t45.5 18.5h606q41 0 56.5 -32t1.5 -63l-535 -1179q-14 -23 -38.5 -30t-47.5 5q-25 12 -33 38t6 48l484 1086h-500q-27 0 -45.5 18t-18.5 45z" />
<glyph unicode="8" horiz-adv-x="878" d="M37 403q0 111 54 202t145 145q-53 45 -83 107.5t-30 135.5q0 66 24.5 123.5t67.5 100.5t100.5 67.5t122.5 24.5q66 0 123 -24.5t100.5 -67.5t68 -100.5t24.5 -123.5q0 -74 -31 -136t-84 -105q92 -53 147.5 -145.5t55.5 -203.5q0 -84 -32 -156.5t-86 -128t-128 -87 t-158 -31.5t-156.5 31.5t-127 87t-86 128t-31.5 156.5zM166 401q0 -57 21.5 -106t58.5 -86t86 -58.5t106 -21.5t107.5 21.5t87.5 58.5t58.5 86t21.5 106t-21.5 107.5t-58.5 87.5t-87 58.5t-108 21.5q-57 0 -106 -21.5t-86 -58.5t-58.5 -87.5t-21.5 -107.5zM250 993 q0 -39 14.5 -73.5t40 -60t60 -40t73.5 -14.5t74 14.5t60.5 40t40 60t14.5 73.5t-14.5 74t-40 60.5t-60.5 40t-74 14.5t-73.5 -14.5t-60 -40t-40 -60.5t-14.5 -74z" />
<glyph unicode="9" horiz-adv-x="923" d="M25 870q0 90 34.5 170t94 139.5t139.5 94.5t170 35t170 -35t139 -94.5t93 -139t34 -170.5q0 -70 -23.5 -135t-60.5 -123l-373 -583q-14 -23 -39.5 -29t-48.5 8t-29 40t9 48l223 348q-23 -4 -46.5 -7t-47.5 -3q-90 0 -170 34t-139.5 93.5t-94 139t-34.5 169.5zM152 870 q0 -66 24.5 -122t66.5 -98t98 -66.5t122 -24.5q63 0 120.5 24.5t98.5 66.5t65.5 98.5t24.5 121.5q0 63 -24.5 121t-65.5 98.5t-98.5 65.5t-120.5 25q-66 0 -122 -25t-98 -65.5t-66.5 -98.5t-24.5 -121z" />
<glyph unicode=":" horiz-adv-x="256" d="M43 84q0 35 24.5 59.5t59.5 24.5t59.5 -24.5t24.5 -59.5t-24.5 -59.5t-59.5 -24.5t-59.5 24.5t-24.5 59.5zM43 909q0 35 24.5 59.5t59.5 24.5t59.5 -24.5t24.5 -59.5t-24.5 -59.5t-59.5 -24.5t-59.5 24.5t-24.5 59.5z" />
<glyph unicode=";" horiz-adv-x="221" d="M27 907q0 35 24.5 59.5t59.5 24.5t59.5 -24.5t24.5 -59.5t-25 -59.5t-59 -24.5q-35 0 -59.5 24.5t-24.5 59.5zM45 80q0 27 18.5 45t45.5 18t45 -18.5t18 -44.5v-316q0 -23 -18.5 -43t-44.5 -20q-27 0 -45.5 18.5t-18.5 44.5v316z" />
<glyph unicode="&#x3c;" horiz-adv-x="696" d="M31 632.5q0 26.5 18 45.5l520 278q23 12 47.5 7t36.5 -23q14 -23 8 -48.5t-28 -37.5l-447 -221l437 -213q23 -10 34 -35t-2 -51q-10 -23 -36.5 -30t-49.5 5l-518 277l-2 2q-18 18 -18 44.5z" />
<glyph unicode="=" horiz-adv-x="841" d="M55 471q0 27 18.5 45.5t45.5 18.5h604q27 0 45 -18.5t18 -45.5t-18 -45t-45 -18h-604q-27 0 -45.5 18t-18.5 45zM55 889q0 27 18.5 45t45.5 18h604q27 0 45 -18.5t18 -44.5q0 -27 -18 -45.5t-45 -18.5h-604q-27 0 -45.5 18.5t-18.5 45.5z" />
<glyph unicode="&#x3e;" horiz-adv-x="704" d="M35 892q-6 26 8 48q12 18 36.5 23.5t47.5 -7.5l520 -278q23 -12 24 -45t-26 -47l-518 -277q-23 -12 -49.5 -5t-36.5 30q-12 27 -1 51.5t34 34.5l436 213l-447 221q-22 12 -28 38z" />
<glyph unicode="?" horiz-adv-x="837" d="M16 905q0 84 32 158t86 128t127 86t157 32q82 0 155.5 -32t128 -86t86 -128t31.5 -156q0 -84 -31.5 -156.5t-86 -127t-128 -86t-155.5 -31.5h-64v-96q0 -33 -18.5 -52.5t-44.5 -19.5q-27 0 -45.5 19.5t-18.5 52.5v151q0 33 19.5 52.5t52.5 19.5h119q57 0 107 21.5 t87 58.5t58.5 86t21.5 106t-21.5 107.5t-58.5 87.5t-87 58.5t-107 21.5q-55 0 -104.5 -21.5t-86.5 -58.5t-58.5 -87t-23.5 -108q0 -29 -18 -46t-47 -17t-46.5 17t-17.5 46zM207 84q0 35 24.5 59.5t59.5 24.5t59.5 -24.5t24.5 -59.5t-24.5 -59.5t-59.5 -24.5t-59.5 24.5 t-24.5 59.5z" />
<glyph unicode="@" horiz-adv-x="1550" d="M35 625q0 154 58.5 289t157.5 235t234.5 158.5t288.5 58.5q154 0 289 -58.5t235.5 -158.5t159 -235.5t58.5 -288.5q0 -61 -11.5 -130t-42 -125.5t-84 -93t-135.5 -36.5q-76 0 -128 47t-83 110q-47 -47 -116.5 -80.5t-141.5 -33.5t-134 26.5t-109.5 73.5t-74 109.5 t-26.5 134.5t26.5 134t74 109.5t109.5 74t134 26.5t134.5 -26.5t109.5 -74t73.5 -110t26.5 -133.5v-131q0 -55 37 -92t90 -37q47 0 76 24.5t44 62.5t19.5 83t4.5 86q0 127 -48.5 239.5t-131.5 195.5t-195.5 131t-239.5 48t-238.5 -48t-194.5 -131t-131 -195.5t-48 -239.5 t48 -239t131 -195t194.5 -131t238.5 -48q47 0 94 6.5t88 18.5q31 10 58.5 2t36.5 -37q10 -35 -13.5 -53.5t-48.5 -28.5q-51 -16 -105.5 -24.5t-109.5 -8.5q-154 0 -289 58.5t-234 158t-157.5 234.5t-58.5 289zM557 627q0 -92 62.5 -154.5t154.5 -62.5q88 0 150.5 60 t66.5 157q0 92 -62.5 154.5t-154.5 62.5t-154.5 -62.5t-62.5 -154.5z" />
<glyph unicode="A" horiz-adv-x="1206" d="M35 40q-5 12 -5 24t5 24l510 1174q6 16 22.5 31.5t36.5 15.5t36.5 -14.5t25.5 -32.5l505 -1174q5 -12 5.5 -24t-5.5 -24q-10 -24 -34 -34q-12 -5 -24 -5q-13 0 -24 6q-24 11 -34 34l-164 375h-576l-163 -375q-10 -23 -34 -34q-12 -6 -25 -6q-11 0 -23 5q-25 10 -35 34z M371 543h465l-232 528z" />
<glyph unicode="B" horiz-adv-x="919" d="M47 63v1182q0 27 18.5 45.5t45.5 18.5h364q66 0 123 -24.5t100 -67.5t69 -101.5t26 -124.5q0 -74 -33 -137t-86 -109q90 -51 144 -142t54 -204q0 -82 -30.5 -154.5t-85 -127t-127 -86t-154.5 -31.5h-364q-27 0 -45.5 18t-18.5 45zM174 127h301q55 0 104.5 22.5t86 59.5 t58 86t21.5 104t-21.5 105.5t-58 87.5t-86 58.5t-104.5 21.5h-301v-545zM174 799h301q39 0 74 16t60.5 42t40 60.5t14.5 73.5t-14.5 74t-40 60.5t-60.5 41t-74 15.5h-301v-383z" />
<glyph unicode="C" horiz-adv-x="1228" d="M39 651q0 135 51 254t139 208t207 140.5t254 51.5q137 0 257 -53.5t210 -145.5q16 -16 24.5 -41t-5.5 -47q-16 -25 -48 -27t-55 21q-74 63 -172 114.5t-211 51.5q-109 0 -205 -41t-166.5 -113t-111.5 -168t-41 -205t41 -205t111.5 -166.5t167 -111.5t204.5 -41 q115 0 214.5 44t170.5 122q16 18 42 24.5t46 -8.5q23 -18 23 -50t-19 -52q-90 -98 -213 -152.5t-264 -54.5q-135 0 -254 51t-207 139.5t-139 207t-51 253.5z" />
<glyph unicode="D" horiz-adv-x="1161" d="M45 63v1182q0 27 18.5 45.5t45.5 18.5h352q135 0 254 -51.5t208 -140.5t140 -207.5t51 -254.5q0 -135 -51 -254.5t-140 -209t-208 -140.5t-254 -51h-352q-27 0 -45.5 18t-18.5 45zM172 127h289q109 0 205 42t167.5 113.5t112.5 168t41 204.5q0 109 -41 205t-112.5 168 t-168 113t-204.5 41h-289v-1055z" />
<glyph unicode="E" horiz-adv-x="821" d="M35 63v1182q0 27 18.5 45.5t44.5 18.5h623q27 0 45 -18.5t18 -45.5t-18 -45t-45 -18h-559v-457h373q27 0 45 -18.5t18 -44.5q0 -27 -18.5 -45.5t-44.5 -18.5h-373v-471h559q27 0 45 -18.5t18 -45.5t-18 -45t-45 -18h-623q-27 0 -45 18t-18 45z" />
<glyph unicode="F" horiz-adv-x="808" d="M29 63v1182q0 27 18.5 45.5t44.5 18.5h625q27 0 45 -18.5t18 -45.5t-18.5 -45t-44.5 -18h-561v-457h354q27 0 45 -18.5t18 -44.5q0 -27 -18 -45.5t-45 -18.5h-354v-535q0 -27 -18.5 -45t-45.5 -18t-45 18t-18 45z" />
<glyph unicode="G" horiz-adv-x="1368" d="M37 651q0 135 51 254t139 208t207 140.5t254 51.5q164 0 302 -74t227 -197q16 -23 14 -47t-25 -43q-18 -14 -44.5 -12t-49.5 29q-96 115 -205.5 166t-218.5 51t-205 -41t-166.5 -113t-111.5 -168t-41 -205t41 -205t111.5 -166.5t167 -111.5t204.5 -41q86 0 163 25.5 t141.5 70.5t112.5 108.5t77 139.5h-285q-27 0 -45 18.5t-18 45.5t18 45t45 18h371q33 0 49 -26q12 -19 12 -40q0 -8 -2 -16q-23 -111 -81 -206t-143 -163.5t-191.5 -107.5t-223.5 -39q-135 0 -254 51t-207 139.5t-139 207t-51 253.5z" />
<glyph unicode="H" horiz-adv-x="1021" d="M57 63v1182q0 27 18.5 45.5t45.5 18.5t45 -18.5t18 -45.5v-575h654v575q0 27 18 45.5t45 18.5t45.5 -18.5t18.5 -45.5v-1182q0 -27 -18.5 -45t-45.5 -18t-45 18.5t-18 44.5v480h-654v-480q0 -27 -18.5 -45t-44.5 -18q-27 0 -45.5 18t-18.5 45z" />
<glyph unicode="I" d="M59 63v1182q0 27 18.5 45.5t45.5 18.5t45 -18.5t18 -45.5v-1182q0 -27 -18 -45t-45 -18t-45.5 18t-18.5 45z" />
<glyph unicode="J" horiz-adv-x="206" d="M-328 -307q0 27 18.5 45t45.5 18q68 2 126 26.5t100 68t66.5 99.5t24.5 122v1173q0 27 18.5 45.5t45.5 18.5t45 -18.5t18 -45.5v-1173q0 -92 -34.5 -172t-94 -139.5t-140.5 -94.5t-175 -37q-27 0 -45.5 18.5t-18.5 45.5z" />
<glyph unicode="K" horiz-adv-x="985" d="M53 63v1182q0 27 18.5 45.5t45.5 18.5t45 -18.5t18 -45.5v-543l641 588q18 18 45 18.5t45 -18.5q18 -18 18.5 -44.5t-18.5 -45.5l-440 -403l442 -701q14 -23 8 -47t-28 -39q-23 -14 -47.5 -8t-38.5 29l-430 680l-197 -181v-467q0 -27 -18.5 -45t-44.5 -18q-27 0 -45.5 18 t-18.5 45z" />
<glyph unicode="L" horiz-adv-x="768" d="M29 63v1182q0 27 18.5 45.5t44.5 18.5q27 0 45.5 -18.5t18.5 -45.5v-1118h520q27 0 45 -18.5t18 -45.5t-18.5 -45t-44.5 -18h-584q-27 0 -45 18t-18 45z" />
<glyph unicode="M" horiz-adv-x="1490" d="M51 72l168 1183q4 23 21.5 38.5t42.5 15.5q43 0 59 -39l416 -1037l413 1037q16 39 60 39q25 0 42 -16.5t21 -41.5l144 -1181q1 -6 0 -12q0 -23 -14 -36q-17 -17 -42 -22q-29 0 -47 15.5t-22 37.5l-115 942l-379 -952q-8 -18 -24.5 -32.5t-36.5 -14.5t-36.5 15.5 t-23.5 31.5l-387 963l-135 -951q-4 -25 -22.5 -40t-40.5 -15q-31 4 -48 24q-14 16 -15 37q0 6 1 11z" />
<glyph unicode="N" horiz-adv-x="1067" d="M57 63v1182q0 27 18.5 45.5t45.5 18.5q23 0 34 -9.5t23 -25.5l705 -998v969q0 27 18.5 45.5t44.5 18.5q27 0 45.5 -18.5t18.5 -45.5v-1182q0 -27 -18.5 -45t-45.5 -18q-23 0 -36 13.5t-25 29.5l-701 991v-971q0 -27 -18.5 -45t-44.5 -18q-27 0 -45.5 18t-18.5 45z" />
<glyph unicode="O" horiz-adv-x="1382" d="M39 651q0 135 51 254t139 208t207 140.5t254 51.5t254 -51.5t208 -140.5t140 -208t51 -254t-51 -253.5t-140 -207t-208 -139.5t-254 -51t-254 51t-207 139.5t-139 207t-51 253.5zM166 651q0 -109 41 -205t111.5 -166.5t167 -111.5t204.5 -41q109 0 205 41t168 111.5 t113 167t41 204.5q0 109 -41 205t-113 168t-168 113t-205 41t-205 -41t-166.5 -113t-111.5 -168t-41 -205z" />
<glyph unicode="P" horiz-adv-x="813" d="M31 63v1180q0 27 18.5 46.5t44.5 19.5h334q74 0 137.5 -28t111.5 -76t75.5 -111.5t27.5 -135.5t-27.5 -136t-75.5 -111t-111.5 -75t-137.5 -28h-270v-545q0 -27 -18.5 -45t-45.5 -18t-45 18t-18 45zM158 735h270q45 0 86 17.5t71.5 48t48 70.5t17.5 87q0 45 -17.5 86 t-48 72t-71.5 48.5t-86 17.5h-270v-447z" />
<glyph unicode="Q" horiz-adv-x="1378" d="M37 651q0 135 51 254t139 208t207 140.5t254 51.5t254 -51.5t208 -140.5t140 -208t51 -254q0 -96 -26.5 -185t-74.5 -164t-115.5 -135.5t-147.5 -98.5q29 -25 80 -29q27 0 45 -18.5t18 -45.5t-18.5 -45t-44.5 -18q-68 4 -121 31.5t-88 74.5q-35 -8 -73 -13t-87 -5 q-125 0 -242.5 49t-208 137t-145.5 207t-55 258zM164 651q0 -154 77.5 -277.5t204.5 -189.5l-4 43q0 57 19.5 105.5t53.5 84.5t78 55.5t95 19.5t98.5 -21.5t81 -58.5t52.5 -85q14 -36 13 -75q0 -13 -1 -27l-6 -43q63 33 116.5 81t91 108.5t59 131t21.5 148.5 q0 109 -40.5 205t-112.5 168t-168 113t-205 41t-205 -41t-166.5 -113t-111.5 -168t-41 -205zM569 246q0 -47 33 -81t86 -38q49 0 84 35t35 84t-35 84t-84 35t-84 -35t-35 -84z" />
<glyph unicode="R" horiz-adv-x="864" d="M51 63v1180q0 27 18.5 46.5t45.5 19.5h336q74 0 137 -28t111.5 -76t76 -111.5t27.5 -135.5q0 -66 -22.5 -123t-61.5 -103t-93.5 -77.5t-115.5 -42.5l311 -506q17 -28 17 -53q0 -23 -27 -43q-17 -11 -33 -11q-10 0 -19 4q-26 11 -40 34l-350 571h-191v-545 q0 -27 -18.5 -45t-44.5 -18q-27 0 -45.5 18t-18.5 45zM178 735h273q45 0 86 17.5t71.5 48t48 70.5t17.5 87q0 45 -17.5 86t-48 72t-71.5 48.5t-86 17.5h-273v-447z" />
<glyph unicode="S" horiz-adv-x="905" d="M34 261q7 26 32 40t50 7t40 -32q18 -37 54 -64.5t79 -47t87 -28.5t79 -9q55 0 108 20.5t93 55.5t64.5 83t24.5 103t-21.5 96t-60 72t-92 55.5t-114.5 44.5q-61 18 -130 46t-125.5 67t-93 91t-36.5 120q0 78 34.5 138.5t90 102.5t124 63.5t136.5 21.5q45 0 93 -7.5t95 -26 t91 -51t81 -83.5q16 -23 12 -54.5t-28 -46.5q-25 -16 -51.5 -8t-40.5 31q-25 41 -58 64.5t-66.5 36t-67.5 15.5t-60 3q-41 0 -86 -10.5t-83 -33t-62.5 -60.5t-24.5 -95q0 -41 35.5 -74t87 -57.5t106.5 -43t94 -32.5q78 -29 141.5 -61.5t109.5 -77.5t71.5 -104.5t25.5 -141.5 t-34.5 -153.5t-93 -124t-134 -82t-157.5 -29.5q-57 0 -120 15.5t-119 43t-102 66.5t-71 86q-10 16 -10 33q1 8 3 17z" />
<glyph unicode="T" horiz-adv-x="862" d="M12 1245q0 27 18.5 45.5t45.5 18.5h710q27 0 45.5 -18.5t18.5 -45.5t-18.5 -45t-45.5 -18h-290v-1119q0 -27 -18.5 -45t-45.5 -18t-45 18.5t-18 44.5v1119h-293q-27 0 -45.5 18t-18.5 45z" />
<glyph unicode="U" horiz-adv-x="1013" d="M51 455v788q0 23 18.5 44.5t47.5 21.5t45 -20.5t16 -47.5v-786q0 -68 25.5 -127.5t69.5 -103.5t104.5 -70.5t128.5 -26.5t127 26.5t104 70.5t72 103.5t27 127.5v788q0 23 18 44.5t47 21.5t45.5 -22.5t16.5 -45.5v-786q0 -94 -37 -177t-98.5 -144.5t-144.5 -97.5t-177 -36 t-177 36t-144.5 97.5t-97.5 144.5t-36 177z" />
<glyph unicode="V" horiz-adv-x="1071" d="M35 1223q-5 12 -5 24t5 24q10 24 35 34q12 5 23 4q13 0 25 -5q24 -11 34 -34l385 -1032l381 1032q10 23 33 34q12 6 25 5q11 0 23 -4q25 -10 35 -34q5 -12 5 -24t-5 -24l-436 -1176q-8 -18 -24.5 -32.5t-36.5 -14.5t-37 15.5t-23 31.5z" />
<glyph unicode="W" horiz-adv-x="1728" d="M47 1223q-5 12 -5 24t5 24q10 24 35 34q12 5 23 4q13 0 25 -5q24 -11 34 -34l385 -1032l250 1011q4 18 21.5 39t43.5 21q27 0 42.5 -18.5t23.5 -41.5l254 -1011l381 1032q10 23 33 34q12 6 25 5q11 0 24 -4q25 -10 34 -34q5 -12 5.5 -24t-5.5 -24l-436 -1176 q-8 -18 -23.5 -32.5t-43.5 -14.5q-27 0 -44.5 15.5t-21.5 31.5l-248 954l-243 -954q-4 -18 -22.5 -32.5t-43.5 -14.5q-27 0 -43 15.5t-23 31.5z" />
<glyph unicode="X" horiz-adv-x="1421" d="M55 63.5q0 26.5 19 45.5l547 546l-547 547q-18 18 -18.5 45t18.5 45q18 18 44.5 18.5t45.5 -18.5l547 -547l546 547q18 18 45 18.5t46 -18.5q18 -18 18 -44.5t-18 -45.5l-547 -547l547 -546q18 -18 18 -45t-18 -46q-18 -18 -45 -18t-46 18l-546 547l-547 -547 q-18 -18 -45 -18t-45 18q-19 19 -19 45.5z" />
<glyph unicode="Y" horiz-adv-x="974" d="M26 1255q5 25 27 41q17 12 36 13q6 0 11 -1q25 -5 41 -28l344 -514l344 514q16 23 41 28q6 1 12 1q18 0 36 -13q23 -14 27 -40q1 -7 1 -13q0 -18 -10 -35l-387 -575v-570q0 -27 -18.5 -45t-45.5 -18t-45 18.5t-18 44.5v570l-385 575q-12 17 -13 36q1 5 2 11z" />
<glyph unicode="Z" horiz-adv-x="1034" d="M31 63q0 16 12 39l778 1080h-727q-27 0 -45 18.5t-18 44.5q0 27 18.5 45.5t44.5 18.5h846q27 0 45.5 -18.5t18.5 -45.5q0 -16 -9.5 -30.5t-7.5 -12.5l-780 -1075h733q27 0 45.5 -18.5t18.5 -45.5t-18.5 -45t-45.5 -18h-846q-27 0 -45 18t-18 45z" />
<glyph unicode="[" horiz-adv-x="466" d="M33 -262v1565q0 27 18.5 45t44.5 18h273q27 0 45 -18.5t18 -44.5q0 -27 -18.5 -45.5t-44.5 -18.5h-209v-1438h209q27 0 45 -18.5t18 -44.5q0 -27 -18.5 -45.5t-44.5 -18.5h-273q-27 0 -45 18.5t-18 45.5z" />
<glyph unicode="\" horiz-adv-x="548" d="M16 1272q-8 25 4.5 47t36.5 33q25 8 48.5 -4.5t31.5 -36.5l393 -1229q10 -25 -2 -48.5t-39 -31.5q-25 -8 -47 4t-32 37z" />
<glyph unicode="]" horiz-adv-x="468" d="M35 -262q0 27 18.5 45t44.5 18h209v1438h-209q-27 0 -45 18.5t-18 45.5t18.5 45t44.5 18h273q27 0 45 -18.5t18 -44.5v-1565q0 -27 -18.5 -45.5t-44.5 -18.5h-273q-27 0 -45 18.5t-18 45.5z" />
<glyph unicode="^" horiz-adv-x="1200" d="M28 532.5q-3 22.5 7 47.5q0 2 3 7t17.5 26.5t44 66.5t84 127t137 207t203.5 307q10 16 26.5 33.5t45.5 17.5t43 -15.5t27 -35.5q121 -182 203.5 -307t137 -207t85 -127t46 -66.5t18.5 -26.5t5 -7q12 -23 6 -45.5t-28 -36.5q-23 -14 -44.5 -6t-33.5 24l-467 660l-444 -650 q-14 -18 -41 -33.5t-56 3.5q-22 14 -25 36.5z" />
<glyph unicode="_" horiz-adv-x="1064" d="M55 63q0 27 18.5 45.5t45.5 18.5h827q27 0 45.5 -18.5t18.5 -45.5t-18.5 -45t-45.5 -18h-827q-27 0 -45.5 18t-18.5 45z" />
<glyph unicode="`" horiz-adv-x="335" d="M23.5 1416.5q7.5 23.5 29.5 37.5q23 14 47.5 7t36.5 -29l170 -293q10 -23 4 -47.5t-28 -38.5q-25 -14 -49.5 -7t-36.5 29l-170 295q-11 23 -3.5 46.5z" />
<glyph unicode="a" horiz-adv-x="1077" d="M43 494q0 102 38 193t104.5 158.5t157.5 106.5t198 39q98 0 187 -40t156.5 -107.5t107.5 -157.5t40 -192v-433q0 -27 -18.5 -45t-44.5 -18q-27 0 -45.5 18.5t-18.5 44.5v125q-68 -76 -163 -130t-205 -54q-102 0 -191.5 37t-157 102.5t-106.5 156t-39 196.5zM170 494 q0 -76 28.5 -142.5t79 -117t117 -79t142.5 -28.5q74 0 139 27.5t115.5 77t80 116t33.5 146.5q0 76 -28.5 143.5t-78.5 117.5t-118 78.5t-143 28.5q-76 0 -142.5 -28.5t-117 -78.5t-79 -117.5t-28.5 -143.5z" />
<glyph unicode="b" horiz-adv-x="1060" d="M35 63v1182q0 27 18.5 45.5t44.5 18.5q27 0 45.5 -18.5t18.5 -45.5v-442q68 74 162 128t208 58q98 0 187.5 -40t157 -107.5t107.5 -157.5t40 -192q0 -100 -39 -189.5t-105.5 -157t-156.5 -106.5t-195 -39q-111 0 -205 42t-161 116v-95q0 -27 -18.5 -45t-45.5 -18t-45 18 t-18 45zM162 475q2 -74 32.5 -137.5t80 -110.5t115 -74.5t138.5 -27.5q76 0 143.5 28.5t118 79t79 117t28.5 142.5t-28.5 143t-79 117.5t-118 79t-143.5 28.5q-74 0 -139 -27.5t-114.5 -76.5t-80 -117t-32.5 -147v-17z" />
<glyph unicode="c" horiz-adv-x="946" d="M43 492q0 102 38 191t104.5 155.5t157.5 106.5t198 44q61 0 113.5 -15.5t94.5 -37t74.5 -46t53.5 -42.5q12 -10 21 -38t-13 -50q-18 -18 -45 -18.5t-45 18.5q-51 45 -117 72.5t-141 27.5q-76 0 -142.5 -28.5t-117 -79t-79 -118t-28.5 -142.5q0 -76 28.5 -142.5t79 -117 t117 -79t142.5 -28.5t141 27.5t117 76.5q18 18 44.5 18.5t45.5 -18.5q17 -17 17 -43q0 -29 -23 -53q-18 -18 -50 -41.5t-76 -44t-98.5 -34t-117.5 -13.5q-102 0 -191.5 37t-157 102.5t-106.5 156t-39 196.5z" />
<glyph unicode="d" horiz-adv-x="1060" d="M35 494q0 102 40 192t107.5 157.5t156.5 107.5t187 40q115 -4 209 -58t162 -128v440q0 27 18.5 45.5t45.5 18.5t45 -18.5t18 -45.5v-1182q0 -27 -18.5 -45t-44.5 -18q-27 0 -45.5 18.5t-18.5 44.5v97l-18 -19q-68 -66 -158 -102.5t-191 -36.5q-104 0 -194 39 t-156.5 106.5t-105.5 157t-39 189.5zM162 494q0 -76 28.5 -142.5t78.5 -117t118 -79t143 -28.5q76 0 142.5 28.5t117 79t79 117t28.5 142.5q-4 80 -33.5 147.5t-79 116.5t-115 76.5t-139.5 27.5q-76 0 -143.5 -28.5t-117.5 -78.5t-78.5 -117.5t-28.5 -143.5z" />
<glyph unicode="e" horiz-adv-x="1062" d="M35 494q0 102 38 191t104.5 155.5t157.5 106.5t197 44q98 0 185.5 -39t155 -104.5t107.5 -153.5t44 -188q1 -6 1 -11q0 -27 -18 -42q-22 -18 -46 -19h-795q10 -66 43 -122t81 -97t109.5 -64.5t128.5 -23.5q76 0 141.5 27.5t116.5 76.5q18 18 45 18.5t46 -18.5 q18 -18 18 -44.5t-18 -45.5q-68 -76 -153 -107.5t-196 -31.5q-102 0 -191 37t-156.5 102.5t-106.5 156t-39 196.5zM168 561h723q-12 63 -45 118.5t-81 95.5t-108.5 63.5t-128.5 23.5t-128 -23.5t-108 -63.5t-80 -95.5t-44 -118.5z" />
<glyph unicode="f" horiz-adv-x="509" d="M14 932q0 27 18.5 45t45.5 18h84v43q0 55 20.5 104.5t57 86.5t86 58.5t106.5 21.5q27 0 45.5 -18.5t18.5 -45.5t-18.5 -45t-45.5 -18q-59 0 -101 -42t-42 -102v-43h139q27 0 45.5 -18.5t18.5 -44.5q0 -27 -18.5 -45.5t-45.5 -18.5h-139v-805q0 -27 -18.5 -45t-45.5 -18 t-45 18.5t-18 44.5v805h-84q-27 0 -45.5 18.5t-18.5 45.5z" />
<glyph unicode="g" horiz-adv-x="1077" d="M43 492q0 102 38 191t104.5 155.5t157.5 106.5t198 44q106 -2 200.5 -47t163.5 -123v90q0 27 18.5 45.5t45.5 18.5t45 -18.5t18 -45.5v-790q0 -100 -39 -189.5t-105.5 -157t-156.5 -106.5t-194 -39t-192.5 37t-156.5 103l-2 2q-18 18 -17 44.5t19 45.5q18 18 44 19 t44 -17q51 -51 117 -80t144 -29q76 0 143.5 29t117.5 79t78.5 116.5t28.5 142.5v45q-68 -76 -163 -120t-205 -44q-102 0 -191.5 37t-157 102.5t-106.5 156t-39 196.5zM170 492q0 -76 28.5 -142.5t79 -117t117 -79t142.5 -28.5q74 0 139 27.5t115.5 74.5t80 110.5t33.5 137.5 v31q-4 74 -33.5 138.5t-80 112.5t-116 75.5t-138.5 27.5q-76 0 -142.5 -28.5t-117 -79t-79 -117.5t-28.5 -143z" />
<glyph unicode="h" horiz-adv-x="815" d="M39 63v1182q0 27 18.5 45.5t44.5 18.5q27 0 45.5 -18.5t18.5 -45.5v-344q47 41 108.5 65.5t131.5 24.5q76 0 143 -28.5t117.5 -78.5t79 -118t28.5 -143v-560q0 -27 -18.5 -45t-44.5 -18q-27 0 -45.5 18.5t-18.5 44.5v560q0 49 -19.5 93t-52 76.5t-76.5 51t-93 18.5 t-92.5 -18.5t-76 -49t-51 -72.5t-20.5 -89v-570q0 -29 -17.5 -46t-46.5 -17q-27 0 -44 18t-19 45z" />
<glyph unicode="i" horiz-adv-x="233" d="M33 1225q0 35 24.5 59.5t59.5 24.5t59.5 -24.5t24.5 -59.5t-24.5 -59.5t-59.5 -24.5t-59.5 24.5t-24.5 59.5zM53 63v869q0 27 18.5 45t45.5 18t45 -18.5t18 -44.5v-869q0 -27 -18.5 -45t-44.5 -18q-27 0 -45.5 18t-18.5 45z" />
<glyph unicode="j" horiz-adv-x="217" d="M-223 -307q0 27 18.5 45t44.5 18q68 2 109 29t63.5 61.5t29.5 67.5t7 49v969q0 27 18.5 45t45.5 18t45 -18.5t18 -44.5v-969q0 -45 -17.5 -102.5t-57.5 -108.5t-103.5 -86t-157.5 -37q-27 0 -45 18.5t-18 45.5zM29 1225q0 35 24.5 59.5t59.5 24.5t59.5 -24.5t24.5 -59.5 t-25 -59.5t-59 -24.5q-35 0 -59.5 24.5t-24.5 59.5z" />
<glyph unicode="k" horiz-adv-x="733" d="M37 63v1180q0 27 18.5 45.5t44.5 18.5q27 0 45.5 -18.5t18.5 -45.5v-680l414 412q18 18 44.5 18t45.5 -18q18 -18 18 -45t-18 -45l-295 -287l313 -504q10 -15 10 -31q0 -8 -3 -16q-7 -25 -29 -39q-15 -10 -31 -9q-8 0 -17 2q-25 7 -38 30l-297 475l-117 -117v-326 q0 -27 -18.5 -45t-45.5 -18t-45 18t-18 45z" />
<glyph unicode="l" d="M59 63v1182q0 27 18.5 45.5t45.5 18.5t45 -18.5t18 -45.5v-1182q0 -27 -18 -45t-45 -18t-45.5 18t-18.5 45z" />
<glyph unicode="m" horiz-adv-x="1325" d="M55 63v869q0 27 18.5 45t45.5 18t45 -18.5t18 -44.5v-23q35 35 91.5 63.5t115.5 28.5q86 0 155.5 -37.5t114.5 -101.5q47 63 117 101t156 38q70 0 131 -26.5t106 -71.5t72 -106.5t27 -130.5v-603q0 -27 -18.5 -45t-45.5 -18t-45 18.5t-18 44.5v603q0 43 -16.5 80.5 t-45 66.5t-66.5 45t-81 16t-81 -16t-65.5 -45t-44 -66.5t-16.5 -80.5v-603q0 -27 -18.5 -45t-44.5 -18q-27 0 -45.5 18.5t-18.5 44.5v603q-4 90 -64.5 149t-144.5 59q-86 0 -144.5 -58t-62.5 -142v-611q0 -27 -18.5 -45t-44.5 -18q-27 0 -45.5 18t-18.5 45z" />
<glyph unicode="n" horiz-adv-x="843" d="M53 63v869q0 27 18.5 45t45.5 18t45 -18.5t18 -44.5v-27q47 41 108.5 65.5t131.5 24.5q76 0 143.5 -28.5t117.5 -78.5t78.5 -118t28.5 -143v-564q0 -27 -18 -45t-45 -18t-45 18.5t-18 44.5v564q0 49 -19.5 93t-52.5 76.5t-77 51t-93 18.5t-92 -18.5t-76 -49t-51.5 -72.5 t-20.5 -89v-574q0 -27 -18.5 -45t-44.5 -18q-27 0 -45.5 18t-18.5 45z" />
<glyph unicode="o" horiz-adv-x="1067" d="M39 494q0 102 38 191t104.5 155.5t157.5 106.5t198 44q98 0 187 -40t156.5 -107.5t107.5 -157.5t40 -192q0 -100 -39 -189.5t-105.5 -157t-156.5 -106.5t-195 -39q-102 0 -191 37t-156.5 102.5t-106.5 156t-39 196.5zM166 494q0 -76 28.5 -142.5t79 -117t117 -79 t141.5 -28.5q76 0 143.5 28.5t118 79t79 117t28.5 142.5t-28.5 143.5t-79 117.5t-118 78.5t-143.5 28.5t-142 -28.5t-116.5 -78.5t-79 -117.5t-28.5 -143.5z" />
<glyph unicode="p" horiz-adv-x="1058" d="M35 -307v1239q0 27 18.5 45t44.5 18q27 0 45.5 -18.5t18.5 -44.5v-103q68 76 162 118t204 42q104 0 194.5 -39t157 -106.5t105.5 -156.5t39 -189q0 -102 -40 -192.5t-107.5 -158t-156.5 -107.5t-188 -40q-115 4 -209 58.5t-161 127.5v-493q0 -27 -18.5 -45.5t-45.5 -18.5 t-45 18.5t-18 45.5zM162 498q2 -80 32.5 -147.5t80 -117t115 -77t138.5 -27.5q76 0 143.5 28.5t118 79t79 118t28.5 143.5t-28.5 142.5t-79 116.5t-118 78.5t-143.5 28.5q-74 0 -139 -27.5t-114.5 -74.5t-80 -111.5t-32.5 -138.5v-14z" />
<glyph unicode="q" horiz-adv-x="1058" d="M35 498q0 100 39 189t105.5 156.5t156.5 106.5t194 39q109 0 203 -42t164 -118v103q0 27 18.5 45t45.5 18t45 -18.5t18 -44.5v-1239q0 -27 -18.5 -45.5t-44.5 -18.5q-27 0 -45.5 18.5t-18.5 45.5v493q-68 -74 -162 -128t-209 -58q-98 0 -187 40t-156.5 107.5t-107.5 158 t-40 192.5zM162 498q0 -76 28.5 -143.5t78.5 -118t118 -79t143 -28.5q74 0 139.5 27.5t115 77t79 117t33.5 147.5q0 76 -28.5 142.5t-79 116.5t-117 78.5t-142.5 28.5t-143.5 -28.5t-117.5 -78.5t-78.5 -116.5t-28.5 -142.5z" />
<glyph unicode="r" horiz-adv-x="618" d="M31 63v869q0 27 18.5 45t44.5 18q27 0 45.5 -18.5t18.5 -44.5v-101q66 74 158 118t200 46q33 0 52.5 -18.5t19.5 -44.5q0 -27 -19.5 -45.5t-52.5 -18.5q-74 -2 -137.5 -30.5t-111.5 -75.5t-77.5 -110.5t-31.5 -135.5v-453q0 -27 -18.5 -45t-45.5 -18t-45 18t-18 45z" />
<glyph unicode="s" horiz-adv-x="811" d="M45 223q-3 11 -3 21q0 15 7 30q12 25 41 33q27 8 50.5 -6t33.5 -41q27 -66 91.5 -99.5t135.5 -33.5q100 0 171 46t71 130q0 68 -69.5 115t-172.5 61q-147 20 -238 81t-91 175q0 72 28.5 121t75.5 80t106.5 44t118.5 13q49 0 97.5 -9t89.5 -26.5t72.5 -44t48.5 -63.5 q14 -27 6 -56.5t-43 -39.5q-27 -10 -47.5 3t-32.5 38q-16 39 -70.5 58t-120.5 19q-35 0 -70.5 -5t-64 -20.5t-48 -42t-19.5 -69.5q0 -31 19.5 -53.5t49 -37.5t65.5 -23.5t68 -14.5q76 -12 142.5 -35.5t117 -60.5t80 -88t29.5 -119t-28.5 -124t-79 -96t-118 -61.5 t-143.5 -21.5q-129 0 -226 59.5t-130 163.5z" />
<glyph unicode="t" horiz-adv-x="540" d="M8 932q0 27 18.5 45t45.5 18h135v250q0 27 18.5 45.5t44.5 18.5q27 0 45.5 -18.5t18.5 -45.5v-250h135q27 0 45 -18.5t18 -44.5q0 -27 -18 -45.5t-45 -18.5h-135v-805q0 -27 -18.5 -45t-45.5 -18t-45 18.5t-18 44.5v805h-135q-27 0 -45.5 18.5t-18.5 45.5z" />
<glyph unicode="u" horiz-adv-x="845" d="M55 369v561q0 27 18.5 45t45.5 18t45 -18.5t18 -44.5v-561q0 -49 19.5 -93.5t52.5 -77t77 -51t93 -18.5t92 18.5t75 49t51.5 72.5t21.5 89v572q0 27 18 45t45 18t45.5 -18.5t18.5 -44.5v-867q0 -27 -18.5 -45t-45.5 -18t-45 18.5t-18 44.5v27q-47 -41 -108.5 -65.5 t-131.5 -24.5q-76 0 -143.5 28.5t-117.5 79t-79 118t-29 143.5z" />
<glyph unicode="v" horiz-adv-x="845" d="M35 953q8 26 31 36q14 5 26 5q14 0 27 -6q25 -11 33 -32l266 -727l276 727q10 23 35 33q12 5 24 5t23 -5q25 -10 34 -35q4 -12 4 -22q0 -12 -5 -25q-2 -4 -15.5 -42t-49 -134t-98 -261t-161.5 -419q-8 -23 -23.5 -37t-43.5 -14q-29 0 -46.5 17.5t-23.5 33.5 q-86 236 -145.5 398.5t-96 262t-53 144.5t-16.5 47q-6 14 -6 28q0 11 4 22z" />
<glyph unicode="w" horiz-adv-x="1316" d="M45 952q8 27 31 37q14 6 26 6q14 0 26 -7q24 -13 34 -34l266 -725l162 424q-49 131 -70.5 187.5t-21.5 60.5q-10 25 0 51.5t32 36.5q12 5 24 5q13 0 25 -6q24 -11 33 -34l45 -123l48 123q10 23 34 33q12 5 24 5t23 -5q25 -10 34 -34.5t-1 -47.5q0 -2 -5 -15t-16.5 -43 t-29.5 -78l-45 -120l156 -420l276 725q8 23 34 33q13 5 25 5t23 -5q25 -10 34 -35q4 -12 4 -23q0 -12 -5 -24q-2 -4 -15.5 -42t-49.5 -133t-98.5 -260t-160.5 -419q-8 -23 -23.5 -37t-43.5 -14q-29 0 -46.5 17.5t-23.5 33.5q-47 127 -85 229.5t-69 188.5 q-31 -84 -70.5 -186.5t-88.5 -231.5q-8 -23 -23.5 -37t-44.5 -14t-46 17.5t-24 33.5q-86 236 -145 397.5t-96 262t-53.5 144.5t-16.5 46q-6 14 -6 28q0 11 4 23z" />
<glyph unicode="x" horiz-adv-x="1089" d="M53 62.5q0 25.5 19 46.5l383 387l-381 387q-18 20 -19.5 45.5t17.5 44.5q20 18 46 19h2q24 0 42 -17l383 -389l383 389q17 17 41 17h3q26 -1 46 -19q18 -18 17 -44t-19 -46l-383 -387l385 -387q18 -20 18 -46t-18 -45q-20 -18 -46 -18t-44 20l-383 386l-383 -386 q-18 -20 -44 -20t-46 18q-19 19 -19 44.5z" />
<glyph unicode="y" horiz-adv-x="839" d="M31 953q8 26 30 36q14 5 27 5q14 0 27 -6q25 -11 32 -32l267 -727l276 727q10 23 35 33q12 5 24 5t23 -5q25 -10 34 -35q4 -12 4 -22q0 -12 -5 -25l-467 -1237q-10 -25 -33 -36q-12 -6 -24 -5q-11 0 -23 4q-25 10 -36 34t-1 48l123 332v4q-86 236 -145.5 398.5t-96 262 t-53 144.5t-16.5 47q-6 14 -6 28q0 11 4 22z" />
<glyph unicode="z" horiz-adv-x="1026" d="M47 62.5q0 25.5 19 46.5l698 757h-651q-27 0 -45.5 18.5t-18.5 45.5t18.5 45t45.5 18h798q25 0 45 -20q18 -18 16.5 -44t-20.5 -46l-690 -756h653q27 0 45.5 -18.5t18.5 -45.5t-18.5 -45t-45.5 -18h-804q-27 0 -45 18q-19 19 -19 44.5z" />
<glyph unicode="{" horiz-adv-x="645" d="M18 653q0 27 18.5 45.5t45.5 18.5h115v428q0 74 27.5 140.5t76.5 116.5t114.5 79.5t139.5 31.5q33 0 52.5 -18t19.5 -45t-18.5 -45.5t-45.5 -18.5q-49 0 -93 -19t-77 -52t-51 -77t-18 -93v-981q0 -49 18 -93t51 -77t77 -52.5t93 -19.5q27 0 45.5 -18.5t18.5 -44.5 q0 -27 -18.5 -45.5t-45.5 -18.5q-76 0 -142.5 29t-116.5 79t-78.5 117.5t-28.5 143.5v426h-115q-27 0 -45.5 18t-18.5 45z" />
<glyph unicode="|" d="M59 -262v1567q0 27 18.5 45t45.5 18t45 -18.5t18 -44.5v-1567q0 -27 -18 -45.5t-45 -18.5t-45.5 18.5t-18.5 45.5z" />
<glyph unicode="}" horiz-adv-x="645" d="M18 -141q0 27 18.5 45t45.5 18q49 0 93 19.5t77 52.5t51.5 77t18.5 93v981q0 49 -18.5 93t-51.5 77t-77 52t-93 19q-27 0 -45.5 18.5t-18.5 45.5t19.5 45t52.5 18q74 -2 139.5 -31.5t114.5 -79.5t77 -116.5t28 -140.5v-428h114q27 0 45.5 -18.5t18.5 -45.5t-18.5 -45 t-45.5 -18h-114v-426q0 -76 -29 -143.5t-79 -117.5t-116.5 -79t-142.5 -29q-27 0 -45.5 18.5t-18.5 45.5z" />
<glyph unicode="~" horiz-adv-x="997" d="M47 563.5q0 26.5 19 44.5q20 27 47.5 55.5t58.5 52t65.5 39t71.5 15.5q23 0 41.5 -2t37 -8t40 -16.5t49.5 -24.5q35 -18 62.5 -37.5t53 -35t50.5 -25t53 -9.5q23 0 45.5 13.5t41 32t32.5 38t23 33.5q14 20 36.5 26.5t43.5 -5.5q23 -14 27.5 -38t-7.5 -44q-16 -33 -41 -65 t-56.5 -56.5t-68.5 -38.5t-76 -14q-27 0 -46 2t-39.5 9t-42 19.5t-52.5 32.5q-53 35 -100 63.5t-107 28.5q-25 0 -47 -12t-42.5 -30.5t-37 -39t-30.5 -37.5q-14 -20 -38 -23t-44 13q-23 17 -23 43.5z" />
<glyph unicode="&#xa1;" horiz-adv-x="331" d="M82 952.016q0 -34.9941 24.5 -59.4893t59.5 -24.4951t59.5 24.4951t24.5 59.4893q0 34.9932 -24.5 59.4893q-24.5 24.4951 -59.5 24.4951t-59.5 -24.4951q-24.5 -24.4961 -24.5 -59.4893zM102 626.075v-834.848q0 -26.9951 18.5 -45.4912q18.5 -18.4971 45.5 -18.4971 t45 18.4971q18 18.4961 18 45.4912v834.848q0 26.9951 -18.5 45.4912q-18.5 18.4971 -44.5 18.4971q-27 0 -45.5 -18.4971q-18.5 -18.4961 -18.5 -45.4912z" />
<glyph unicode="&#xa2;" horiz-adv-x="907" d="M23 489q0 90 29.5 171t83.5 144.5t128 107.5t162 63v201q0 29 20.5 49t51.5 20q29 0 48 -20.5t19 -48.5v-193q51 -6 96.5 -22.5t82 -36t65.5 -41t47 -37.5q12 -10 21.5 -38t-13.5 -50q-18 -18 -44.5 -18.5t-45.5 18.5q-43 37 -96 61.5t-113 34.5v-729q59 8 112.5 34.5 t96.5 67.5q18 18 45 18.5t45 -18.5q18 -18 17.5 -45.5t-23.5 -50.5q-16 -18 -44 -38.5t-65.5 -40t-84 -34t-99.5 -18.5v-133q0 -29 -19.5 -49.5t-47.5 -20.5q-31 0 -51.5 20.5t-20.5 49.5v139q-86 14 -159.5 56t-128 105.5t-85 145.5t-30.5 176zM150 489q0 -66 20 -123 t57 -104t88.5 -81t110.5 -48v713q-59 -16 -110.5 -49t-88.5 -80t-57 -106t-20 -122z" />
<glyph unicode="&#xa3;" horiz-adv-x="1044" d="M18 528q0 27 18.5 45.5t45.5 18.5h92v383q0 45 17.5 102.5t57.5 108.5t103.5 86t157.5 37q27 0 45 -18.5t18 -45.5t-18 -45t-45 -18q-68 -2 -109 -29t-63.5 -61.5t-29.5 -68.5t-7 -48v-383h102q27 0 45.5 -18.5t18.5 -45.5t-18.5 -45t-45.5 -18h-102v-338h662 q27 0 45 -18.5t18 -45.5t-18.5 -45t-44.5 -18h-725q-25 0 -44.5 18.5t-19.5 44.5v402h-92q-27 0 -45.5 18t-18.5 45z" />
<glyph unicode="&#xa4;" horiz-adv-x="1091" d="M51 692q0 109 42 201t114 160q-33 47 -67 98t-72 106q-14 29 -13.5 52.5t25.5 44.5q23 14 49.5 9t44.5 -32q37 -53 71 -104t66 -101q53 29 112.5 46.5t125.5 17.5q57 0 111.5 -14.5t103.5 -38.5q33 45 66.5 93t70.5 101q18 27 45 32t49 -9q25 -18 28 -45t-17 -52 q-37 -51 -71 -98t-67 -94q78 -70 125 -166t47 -207q0 -113 -47 -209t-127 -166q49 -72 78 -114.5t43 -65t20 -29.5l5 -8q16 -23 11 -49t-28 -41q-23 -16 -48 -11t-40 28l-5 8q-5 8 -20.5 31.5t-44 67.5t-77.5 116q-49 -23 -102.5 -36t-112.5 -13q-127 0 -236 57l-137 -231 q-14 -23 -40 -28t-48 11q-23 14 -27 39t11 51l139 230q-72 66 -114 158.5t-42 203.5zM180 692q0 -76 29 -142.5t79 -116.5t116.5 -78.5t142.5 -28.5t143.5 28.5t117.5 78.5t78.5 116.5t28.5 142.5t-28.5 143.5t-78.5 118t-117.5 79t-143.5 28.5t-142.5 -28.5t-116.5 -79 t-79 -118t-29 -143.5z" />
<glyph unicode="&#xa5;" horiz-adv-x="1003" d="M30 1254.5q1 23.5 25 43.5q23 14 48.5 9.5t43.5 -31.5l353 -508l354 508q18 27 44 32t48 -10q23 -18 26 -44.5t-16 -49.5l-370 -516h217q27 0 45 -18.5t18 -44.5q0 -27 -18.5 -45.5t-44.5 -18.5h-240v-127h240q27 0 45 -18.5t18 -44.5q0 -27 -18.5 -45.5t-44.5 -18.5 h-240v-244q0 -27 -18.5 -45t-44.5 -18q-27 0 -45.5 18.5t-18.5 44.5v244h-237q-27 0 -45.5 18.5t-18.5 45.5t18.5 45t45.5 18h237v127h-237q-27 0 -45.5 18.5t-18.5 45.5t18.5 45t45.5 18h213l-369 516q-14 27 -13 50.5z" />
<glyph unicode="&#xa6;" d="M59 -311v1609q0 27 18.5 45.5t45.5 18.5t45 -18.5t18 -45.5v-1609q0 -27 -18 -45.5t-45 -18.5t-45.5 18.5t-18.5 45.5z" />
<glyph unicode="&#xa7;" horiz-adv-x="913" d="M41 436q0 94 39 175t104 139q-59 43 -94 103t-35 132q0 68 31 127t84 102t125 69t151 26q80 0 151 -24.5t124 -67.5t84 -100.5t33 -123.5q0 -33 -17.5 -51t-44.5 -18t-45 17t-18 44q0 35 -20.5 71t-56.5 64.5t-84 46t-106 17.5q-55 0 -103 -16.5t-85 -43t-57.5 -63.5 t-20.5 -76q0 -41 20.5 -76t55.5 -59q4 -2 10 -8q10 -10 33 -25q35 14 73 22.5t79 8.5q86 0 160.5 -33t130 -88t88 -130t32.5 -161t-32.5 -160.5t-88.5 -130.5q59 -43 94 -103t35 -132q0 -68 -30.5 -127t-84 -102t-125 -69t-151.5 -26t-150.5 24.5t-123.5 67.5t-84 100.5 t-33 123.5q0 33 17.5 51t44.5 18t45 -17t18 -44q0 -35 20.5 -71t56.5 -64.5t84 -46t105 -17.5q55 0 103.5 16.5t85.5 43t57 62.5t20 77t-20 75.5t-55 59.5q-2 2 -8 6q-10 6 -25 19q-84 -43 -186 -43q-86 0 -161 31.5t-130.5 87t-87 130t-31.5 160.5zM168 436 q0 -59 22.5 -110.5t61.5 -90t90 -61t111 -22.5q57 0 109 22.5t90 61t60.5 90t22.5 110.5q0 57 -22.5 109.5t-60.5 90.5t-90 60.5t-109 22.5q-59 0 -110.5 -22.5t-90.5 -60.5t-61.5 -90.5t-22.5 -109.5z" />
<glyph unicode="&#xa8;" horiz-adv-x="593" d="M51 1518q0 35 24.5 59.5t59.5 24.5t59.5 -25t24.5 -59q0 -35 -24.5 -59.5t-59.5 -24.5t-59.5 24.5t-24.5 59.5zM375 1518q0 35 24.5 59.5t59.5 24.5t59.5 -25t24.5 -59q0 -35 -24.5 -59.5t-59.5 -24.5t-59.5 24.5t-24.5 59.5z" />
<glyph unicode="&#xa9;" horiz-adv-x="1558" d="M39 662q0 154 58.5 288.5t157.5 235t234.5 159t288.5 58.5q154 0 289 -58.5t235.5 -159t159 -235.5t58.5 -288q0 -154 -58.5 -289t-159 -234.5t-235.5 -158t-289 -58.5t-289 58.5t-234 158t-157.5 234.5t-58.5 289zM166 659q0 -127 48 -238.5t131 -194.5t194.5 -131 t238.5 -48t239.5 48t195.5 131t131.5 194.5t48.5 238.5t-48.5 240t-131.5 196t-195.5 131t-239.5 48t-238.5 -48t-194.5 -131t-131 -196t-48 -240zM426 662q0 72 27.5 134t74.5 109t109.5 75t134.5 28q51 0 94 -13.5t75 -32t52.5 -37t28.5 -30.5q20 -18 20 -44t-16 -44 q-18 -20 -50 -15t-48 21q-29 29 -69 47.5t-85 18.5t-85 -17.5t-68.5 -47.5t-46 -69.5t-17.5 -85.5q0 -92 62.5 -154.5t154.5 -62.5q45 0 84 15.5t68 44.5q18 20 43.5 20t44.5 -16q20 -18 20 -44t-16 -44q-102 -102 -246 -103q-72 0 -134.5 28t-109.5 75t-74.5 109.5 t-27.5 134.5z" />
<glyph unicode="&#xaa;" horiz-adv-x="839" d="M43 985q0 78 28.5 147.5t80 121t121 81t149.5 29.5q76 0 144.5 -30.5t119.5 -82t81 -120t30 -146.5v-330q0 -20 -15.5 -41.5t-48.5 -21.5t-48 21.5t-15 41.5v76q-53 -57 -108.5 -89t-141.5 -32q-78 0 -146.5 29t-120 79t-81 118.5t-29.5 148.5zM172 987q0 -51 19.5 -97 t53.5 -80t80 -53.5t97 -19.5t97 19.5t80 53.5t53.5 80t19.5 97t-19.5 97t-53.5 80t-80 53.5t-97 19.5t-97 -19.5t-80 -53.5t-53.5 -80t-19.5 -97z" />
<glyph unicode="&#xab;" horiz-adv-x="1372" d="M45 485.5q0 26.5 18 44.5l439 412q18 18 44.5 18.5t45.5 -18.5q18 -18 18 -45t-18 -45l-391 -367l391 -372q18 -18 18 -45t-18 -45t-45 -18.5t-45 18.5l-436 415q-21 21 -21 47.5zM762 485.5q0 26.5 18 44.5l439 412q18 18 44.5 18.5t45.5 -18.5q18 -18 18 -45t-18 -45 l-391 -367l391 -372q18 -18 18 -45t-18 -45t-45 -18.5t-45 18.5l-437 415l-2 2q-18 19 -18 45.5z" />
<glyph unicode="&#xac;" horiz-adv-x="1005" d="M31 637q0 27 18.5 45t44.5 18h817q27 0 45.5 -18t18.5 -45v-291q0 -27 -18.5 -45t-45.5 -18t-45 18t-18 45v227h-754q-27 0 -45 18.5t-18 45.5z" />
<glyph unicode="&#xad;" horiz-adv-x="868" d="M55 637q0 27 18.5 45t45.5 18h631q27 0 45 -18t18 -45t-18.5 -45.5t-44.5 -18.5h-631q-27 0 -45.5 18.5t-18.5 45.5z" />
<glyph unicode="&#xae;" horiz-adv-x="1558" d="M39 651q0 154 58.5 289t157.5 235.5t234.5 159t288.5 58.5q154 0 289 -58.5t235.5 -159t159 -235.5t58.5 -289t-58.5 -289t-159 -234t-235.5 -157.5t-289 -58.5t-289 58.5t-234 157.5t-157.5 234t-58.5 289zM166 649q0 -127 48 -238.5t131 -194.5t194.5 -131t238.5 -48 t239.5 48t195.5 131t131.5 194.5t48.5 238.5t-48.5 239.5t-131.5 195.5t-195.5 131.5t-239.5 48.5t-238.5 -48.5t-194.5 -131.5t-131 -195.5t-48 -239.5zM631 346v295q2 74 31.5 141.5t79 119.5t116 83t143.5 31q29 0 47.5 -18.5t18.5 -47.5t-18.5 -47t-47.5 -18 q-53 -2 -97 -22.5t-75.5 -53.5t-50 -76t-20.5 -92v-295q0 -27 -18.5 -45t-45.5 -18t-45 18t-18 45z" />
<glyph unicode="&#xb0;" horiz-adv-x="841" d="M39 928q0 80 29.5 149.5t82 121.5t121 82t148.5 30t149.5 -30t121.5 -82t82 -121.5t30 -149.5t-30 -148.5t-82 -121t-121.5 -82t-149.5 -29.5t-148.5 29.5t-121 82t-82 121t-29.5 148.5zM166 928q0 -53 19.5 -99.5t54 -81t81 -54t99.5 -19.5t99 19.5t81 54t55.5 80.5 t20.5 100q0 53 -20.5 99t-55.5 81t-81 55.5t-99 20.5t-99.5 -20.5t-81 -55.5t-54 -81t-19.5 -99z" />
<glyph unicode="&#xb1;" horiz-adv-x="796" d="M18 330q0 27 18.5 45t45.5 18h631q27 0 45 -18.5t18 -44.5q0 -27 -18.5 -45.5t-44.5 -18.5h-631q-27 0 -45.5 18.5t-18.5 45.5zM18 848q0 27 18.5 45t45.5 18h252v254q0 27 18.5 45.5t44.5 18.5q27 0 45.5 -18.5t18.5 -45.5v-254h254q27 0 45 -18.5t18 -44.5 q0 -27 -18.5 -45.5t-44.5 -18.5h-254v-254q0 -27 -18.5 -45t-45.5 -18t-45 18.5t-18 44.5v254h-252q-27 0 -45.5 18.5t-18.5 45.5z" />
<glyph unicode="&#xb2;" horiz-adv-x="743" d="M43 598q-2 23 11.5 38t23.5 23q135 106 211 168l114 93q45 37 58 45q25 20 51.5 46.5t26.5 57.5t-15.5 52.5t-40 35.5t-54.5 21.5t-60 7.5q-25 0 -52.5 -7.5t-52 -19.5t-41 -31.5t-18.5 -44.5q-2 -35 -20.5 -53t-43.5 -18q-23 0 -43 17.5t-20 45.5q2 49 25.5 93t62.5 76 t92 50.5t113 18.5q61 0 114.5 -19.5t93 -52.5t63.5 -77t24 -95q0 -53 -29 -95t-70 -81q-16 -14 -53 -45q-31 -27 -87 -72t-146 -114h362q25 -2 42 -20.5t17 -43.5q0 -27 -17 -44t-42 -19h-537q-18 0 -40.5 14t-22.5 49z" />
<glyph unicode="&#xb3;" horiz-adv-x="612" d="M41 639q0 27 18.5 45t44.5 18q27 0 45.5 -18t18.5 -45q0 -57 39 -97t98 -40t99 40t40 97q0 55 -38.5 95t-100.5 44q-27 0 -44 18.5t-17 45.5t17.5 44t43.5 17q59 0 99 41t40 98t-39.5 97.5t-99.5 40.5q-59 0 -98 -40t-39 -98q0 -27 -18.5 -45t-45.5 -18t-45 18.5 t-18 44.5q0 55 20.5 103.5t56.5 85.5t84 57.5t103 20.5t103.5 -20.5t85 -57.5t57 -85t20.5 -104q0 -59 -25.5 -112t-68.5 -88q43 -37 68.5 -89.5t25.5 -113.5q0 -47 -18 -94t-53 -86t-84 -62.5t-111 -23.5q-55 0 -103 20.5t-84 57t-56.5 85t-20.5 103.5z" />
<glyph unicode="&#xb4;" horiz-adv-x="333" d="M21.5 1090.5q-7.5 23.5 3.5 46.5l170 295q12 23 36.5 29.5t49.5 -7.5q23 -14 28.5 -38.5t-4.5 -47.5l-170 -293q-12 -23 -36.5 -30t-47.5 8q-22 14 -29.5 37.5z" />
<glyph unicode="&#xb6;" d="M59 63v1235q0 27 18.5 45.5t45.5 18.5t45 -18.5t18 -45.5v-1235q0 -27 -18 -45t-45 -18t-45.5 18t-18.5 45z" />
<glyph unicode="&#xb7;" horiz-adv-x="227" d="M41 496q0 31 20.5 52t51.5 21t52 -21.5t21 -51.5q0 -31 -21.5 -51.5t-51.5 -20.5q-31 0 -51.5 20.5t-20.5 51.5z" />
<glyph unicode="&#xb8;" horiz-adv-x="411" d="M27 -199q0 23 17 40.5t40 17.5t40 -17.5t17 -40.5q4 -29 21.5 -46t42.5 -17q27 0 45 18.5t18 44.5q0 25 -17.5 43.5t-45.5 20.5q-23 0 -40.5 18.5t-17.5 46.5v191h115v-150q53 -18 87 -64t34 -106q0 -74 -52 -126t-126 -52t-126 52t-52 126z" />
<glyph unicode="&#xb9;" horiz-adv-x="436" d="M35 1110q6 25 28 39l230 145q39 27 74.5 10.5t35.5 -57.5v-641q0 -27 -18 -45t-45 -18t-45.5 18.5t-18.5 44.5v524l-147 -90q-23 -14 -48.5 -7t-39.5 30q-12 22 -6 47z" />
<glyph unicode="&#xba;" horiz-adv-x="839" d="M39 928q0 80 29.5 148.5t82 120.5t121 82t148.5 30t148.5 -30t120.5 -82t82 -120.5t30 -148.5t-30 -148.5t-82 -121t-120.5 -82t-148.5 -29.5t-148.5 29.5t-121 82t-82 121t-29.5 148.5zM166 928q0 -53 20.5 -99.5t54 -80t80 -54t99.5 -20.5q51 0 98 20.5t81 54 t54.5 79.5t20.5 100q0 51 -20.5 98t-54.5 81t-81 54.5t-98 20.5q-53 0 -99.5 -20.5t-80 -54.5t-54 -81t-20.5 -98z" />
<glyph unicode="&#xbb;" horiz-adv-x="1370" d="M43 67.5q0 26.5 18 45.5l392 372l-392 367q-18 18 -18 45t18 45t45 18.5t46 -18.5l438 -412q18 -18 18 -44.5t-18 -45.5l-2 -2l-436 -415q-18 -18 -45 -18.5t-46 18.5q-18 18 -18 44.5zM760 67.5q0 26.5 18 45.5l391 372l-391 367q-18 18 -18 45t18 45t45 18.5t45 -18.5 l439 -412q18 -18 18 -44.5t-18 -45.5l-2 -2l-437 -415q-18 -18 -44.5 -18.5t-45.5 18.5q-18 18 -18 44.5z" />
<glyph unicode="&#xbc;" horiz-adv-x="1105" d="M33 1151q6 25 28 39l230 145q39 27 74.5 10.5t35.5 -57.5v-641q0 -27 -18 -45t-45 -18t-45.5 18.5t-18.5 44.5v524l-147 -90q-23 -14 -48.5 -7t-39.5 30q-12 22 -6 47zM293 80l409 1229q10 25 34 38t48 5q25 -10 35 -32t4 -46l-409 -1231q-10 -25 -33 -37t-47 -6 q-27 8 -39 31.5t-2 48.5zM612 322l131 432q6 27 30 39t48 4q25 -8 38 -32t5 -48l-104 -352h127v110q0 27 18.5 45.5t44.5 18.5q27 0 45.5 -18.5t18.5 -45.5v-110q27 0 45 -18.5t18 -45.5t-18.5 -45t-44.5 -18v-172q0 -27 -18.5 -45.5t-45.5 -18.5t-45 18.5t-18 45.5v172 h-209q-31 0 -53.5 24.5t-12.5 59.5z" />
<glyph unicode="&#xbd;" horiz-adv-x="1329" d="M31 1151q6 25 28 39l230 145q39 27 74.5 10.5t35.5 -57.5v-641q0 -27 -18.5 -45t-44.5 -18q-27 0 -45.5 18.5t-18.5 44.5v524l-147 -90q-23 -14 -48.5 -7t-39.5 30q-12 22 -6 47zM291 80l409 1229q10 25 34 38t48 5q25 -10 35 -32t4 -46l-409 -1231q-10 -25 -33 -37 t-47 -6q-27 8 -39 31.5t-2 48.5zM641 63q-2 23 11.5 38.5t23.5 23.5q135 106 211 167.5t114 92.5q45 37 58 45q25 20 51.5 47t26.5 58t-15.5 52t-40 35.5t-54.5 21.5t-60 7q-25 0 -52.5 -7t-52 -19.5t-41 -32t-18.5 -43.5q-2 -35 -20.5 -53.5t-43.5 -18.5q-23 0 -43 17.5 t-20 46.5q2 49 25.5 93t62.5 75.5t92 50t113 18.5q61 0 114.5 -19.5t93.5 -52t63.5 -76.5t23.5 -95q0 -53 -29 -95.5t-70 -81.5q-16 -14 -53 -45q-31 -27 -87 -71.5t-146 -114.5h362q25 -2 42 -20.5t17 -43.5q0 -27 -17 -44t-42 -19h-536q-18 0 -41 14t-23 49z" />
<glyph unicode="&#xbe;" horiz-adv-x="1234" d="M31 694q0 27 18.5 45.5t44.5 18.5q27 0 45.5 -18.5t18.5 -45.5q0 -57 39 -97t98 -40t99 40t40 97q0 55 -39 95t-100 45q-27 0 -44.5 18t-17.5 45t17.5 44t44.5 17q59 0 99 41t40 99q0 57 -40 97t-99 40t-98 -40t-39 -97q0 -27 -18.5 -45.5t-45.5 -18.5t-45 18.5t-18 45.5 q0 55 20.5 103t56 85t84 57.5t103.5 20.5t103 -20.5t85 -57.5t57.5 -85t20.5 -103q0 -59 -25.5 -112.5t-68.5 -88.5q43 -37 68.5 -89t25.5 -114q0 -47 -18.5 -94t-53 -86t-84 -62.5t-110.5 -23.5q-55 0 -103.5 20.5t-84 57.5t-56 85t-20.5 103zM424 80l410 1229 q8 25 32.5 38t48.5 5q25 -10 35.5 -32t3.5 -46l-409 -1231q-10 -25 -33 -37t-47 -6q-27 8 -39 31.5t-2 48.5zM737 322l131 432q6 27 30 39t48 4q25 -8 38 -32t5 -48l-104 -352h127v110q0 27 18.5 45.5t44.5 18.5q27 0 45.5 -18.5t18.5 -45.5v-110q27 0 45 -18.5t18 -45.5 t-18.5 -45t-44.5 -18v-172q0 -27 -18.5 -45.5t-45.5 -18.5t-45 18.5t-18 45.5v172h-209q-31 0 -53.5 24.5t-12.5 59.5z" />
<glyph unicode="&#xbf;" horiz-adv-x="854" d="M834.003 88.166q0 -83.9854 -31.9941 -157.972t-85.9844 -127.977t-126.977 -85.9844t-156.972 -31.9941q-81.9844 0 -155.471 31.9941q-73.4873 31.9941 -127.977 85.9844q-54.4902 53.9902 -85.9844 127.977t-31.4941 155.972q0 83.9844 31.4941 156.472 q31.4941 72.4863 85.9844 126.977q54.4893 54.4902 127.977 85.9844q73.4863 31.4941 155.471 31.4941h63.9883v95.9824q0 32.9941 18.4971 52.4902q18.4961 19.4961 44.4922 19.4961q26.9951 0 45.4912 -19.4961q18.4971 -19.4961 18.4971 -52.4902v-150.973 q0 -32.9941 -19.4971 -52.4902q-19.4961 -19.4961 -52.4902 -19.4961h-118.979q-56.9893 0 -106.98 -21.4961q-49.9902 -21.4961 -86.9834 -58.4893t-58.4893 -85.9844t-21.4961 -105.98q0 -56.9902 21.4961 -107.48q21.4961 -50.4912 58.4893 -87.4844t86.9834 -58.4893 q49.9912 -21.4961 106.98 -21.4961q54.9902 0 104.481 21.4961t86.4844 58.4893t58.4893 86.9844t23.4951 107.98q0 28.9941 17.9971 45.9912q17.9961 16.9971 46.9912 16.9971t46.4912 -16.9971q17.4971 -16.9971 17.4971 -45.9912zM643.038 909.016 q0 -34.9941 -24.4961 -59.4893q-24.4951 -24.4951 -59.4883 -24.4951q-34.9941 0 -59.4893 24.4951q-24.4961 24.4951 -24.4961 59.4893q0 34.9932 24.4961 59.4893q24.4951 24.4951 59.4893 24.4951q34.9932 0 59.4883 -24.4951q24.4961 -24.4961 24.4961 -59.4893z" />
<glyph unicode="&#xc0;" horiz-adv-x="1157" d="M12 38q-5 12 -5 24t5 24l510 1174q6 16 22.5 31.5t36.5 15.5t36.5 -14.5t25.5 -32.5l505 -1174q5 -12 5.5 -24t-5.5 -24q-10 -24 -34 -34q-12 -5 -24 -5q-13 0 -24 6q-24 11 -34 34l-164 375h-576l-163 -375q-10 -23 -34 -34q-12 -6 -25 -6q-11 0 -23 5q-25 10 -35 34z M348 541h465l-232 528zM332.5 1770.5q7.5 23.5 29.5 37.5q23 14 47.5 7t36.5 -29l170 -293q10 -23 4 -47.5t-28 -38.5q-25 -14 -49.5 -7t-36.5 29l-170 295q-11 23 -3.5 46.5z" />
<glyph unicode="&#xc1;" horiz-adv-x="1157" d="M12 40q-5 12 -5 24t5 24l510 1174q6 16 22.5 31.5t36.5 15.5t36.5 -14.5t25.5 -32.5l505 -1174q5 -12 5.5 -24t-5.5 -24q-10 -24 -34 -34q-12 -5 -24 -5q-13 0 -24 6q-24 11 -34 34l-164 375h-576l-163 -375q-10 -23 -34 -34q-12 -6 -25 -6q-11 0 -23 5q-25 10 -35 34z M348 543h465l-232 528zM543.5 1446.5q-7.5 23.5 3.5 46.5l170 295q12 23 36.5 29.5t49.5 -7.5q23 -14 28.5 -38.5t-4.5 -47.5l-170 -293q-12 -23 -36.5 -30t-47.5 8q-22 14 -29.5 37.5z" />
<glyph unicode="&#xc2;" horiz-adv-x="1206" d="M35 40q-5 12 -5 24t5 24l510 1174q6 16 22.5 31.5t36.5 15.5t36.5 -14.5t25.5 -32.5l505 -1174q5 -12 5.5 -24t-5.5 -24q-10 -24 -34 -34q-12 -5 -24 -5q-13 0 -24 6q-24 11 -34 34l-164 375h-576l-163 -375q-10 -23 -34 -34q-12 -6 -25 -6q-11 0 -23 5q-25 10 -35 34z M371 543h465l-232 528zM254 1415.5q0 26.5 19 44.5l284 273q18 18 45 18t46 -18l2 -2l284 -266q18 -18 18.5 -45t-18.5 -46q-18 -18 -44.5 -18t-45.5 18l-242 228l-239 -232q-18 -18 -45 -18t-45 18q-19 19 -19 45.5z" />
<glyph unicode="&#xc3;" horiz-adv-x="1222" d="M43 40q-5 12 -5 24t5 24l510 1174q6 16 22.5 31.5t36.5 15.5t36.5 -14.5t25.5 -32.5l505 -1174q5 -12 5.5 -24t-5.5 -24q-10 -24 -34 -34q-12 -5 -24 -5q-13 0 -24 6q-24 11 -34 34l-164 375h-576l-163 -375q-10 -23 -34 -34q-12 -6 -25 -6q-11 0 -23 5q-25 10 -35 34z M379 543h465l-232 528zM197 1456.5q0 26.5 19 44.5q20 27 47.5 55.5t58.5 52t65.5 39t71.5 15.5q43 0 85 -24.5t82 -54.5t75 -54.5t63 -24.5q23 0 45.5 13.5t41 32t33 38t22.5 33.5q14 20 36.5 26.5t43.5 -5.5q23 -14 27.5 -38t-7.5 -44q-16 -33 -40.5 -65t-56.5 -56.5 t-69 -38.5t-76 -14q-43 0 -81.5 24.5t-76.5 53t-74 53t-73 24.5q-25 0 -47 -12t-42.5 -30.5t-37 -39t-30.5 -37.5q-14 -20 -38 -23t-44 13q-23 17 -23 43.5z" />
<glyph unicode="&#xc4;" horiz-adv-x="1157" d="M12 40q-5 12 -5 24t5 24l510 1174q6 16 22.5 31.5t36.5 15.5t36.5 -14.5t25.5 -32.5l505 -1174q5 -12 5.5 -24t-5.5 -24q-10 -24 -34 -34q-12 -5 -24 -5q-13 0 -24 6q-24 11 -34 34l-164 375h-576l-163 -375q-10 -23 -34 -34q-12 -6 -25 -6q-11 0 -23 5q-25 10 -35 34z M348 543h465l-232 528zM330 1518q0 35 24.5 59.5t59.5 24.5t59.5 -25t24.5 -59q0 -35 -24.5 -59.5t-59.5 -24.5t-59.5 24.5t-24.5 59.5zM654 1518q0 35 24.5 59.5t59.5 24.5t59.5 -25t24.5 -59q0 -35 -24.5 -59.5t-59.5 -24.5t-59.5 24.5t-24.5 59.5z" />
<glyph unicode="&#xc5;" horiz-adv-x="1206" d="M223 1665q0 80 29.5 149.5t82 121.5t121 82t148.5 30t149.5 -30t121.5 -82t82 -121.5t30 -149.5t-30 -148.5t-82 -121t-121.5 -82t-149.5 -29.5t-148.5 29.5t-121 82t-82 121t-29.5 148.5zM350 1665q0 -53 19.5 -99.5t54 -81t81 -54t99.5 -19.5t99 19.5t81 54t55.5 80.5 t20.5 100q0 53 -20.5 99t-55.5 81t-81 55.5t-99 20.5t-99.5 -20.5t-81 -55.5t-54 -81t-19.5 -99zM35 40q-5 12 -5 24t5 24l510 1174q6 16 22.5 31.5t36.5 15.5t36.5 -14.5t25.5 -32.5l505 -1174q5 -12 5.5 -24t-5.5 -24q-10 -24 -34 -34q-12 -5 -24 -5q-13 0 -24 6 q-24 11 -34 34l-164 375h-576l-163 -375q-10 -23 -34 -34q-12 -6 -25 -6q-11 0 -23 5q-25 10 -35 34zM371 543h465l-232 528z" />
<glyph unicode="&#xc6;" horiz-adv-x="1880" d="M58 40q-5 12 -5 24t5 24l510 1174q6 16 22.5 31.5t36.5 15.5t36.5 -14.5t25.5 -32.5l505 -1174q5 -12 5.5 -24t-5.5 -24q-10 -24 -34 -34q-12 -5 -24 -5q-13 0 -24 6q-24 11 -34 34l-164 375h-576l-163 -375q-10 -23 -34 -34q-12 -6 -25 -6q-11 0 -23 5q-25 10 -35 34z M394 543h465l-232 528zM1071 63v1182q0 27 18.5 45.5t44.5 18.5h623q27 0 45 -18.5t18 -45.5t-18 -45t-45 -18h-559v-457h373q27 0 45 -18.5t18 -44.5q0 -27 -18.5 -45.5t-44.5 -18.5h-373v-471h559q27 0 45 -18.5t18 -45.5t-18 -45t-45 -18h-623q-27 0 -45 18t-18 45z" />
<glyph unicode="&#xc7;" horiz-adv-x="1230" d="M41 651q0 135 51 254t139 208t207 140.5t254 51.5q137 0 257 -53.5t210 -145.5q16 -16 24.5 -41t-5.5 -47q-16 -25 -48 -27t-55 21q-74 63 -172 114.5t-211 51.5q-109 0 -205 -41t-166.5 -113t-111.5 -168t-41 -205t41 -205t111.5 -166.5t167 -111.5t204.5 -41 q115 0 214.5 44t170.5 122q16 18 42 24.5t46 -8.5q23 -18 23 -50t-19 -52q-90 -98 -213 -152.5t-264 -54.5q-135 0 -254 51t-207 139.5t-139 207t-51 253.5zM478 -267q0 23 17 40.5t40 17.5t40 -17.5t17 -40.5q4 -29 21.5 -46t42.5 -17q27 0 45 18.5t18 44.5 q0 25 -17.5 43.5t-45.5 20.5q-23 0 -40.5 18.5t-17.5 46.5v191h115v-150q53 -18 87 -64t34 -106q0 -74 -52 -126t-126 -52t-126 52t-52 126z" />
<glyph unicode="&#xc8;" horiz-adv-x="880" d="M66 63v1182q0 27 18.5 45.5t44.5 18.5h623q27 0 45 -18.5t18 -45.5t-18 -45t-45 -18h-559v-457h373q27 0 45 -18.5t18 -44.5q0 -27 -18.5 -45.5t-44.5 -18.5h-373v-471h559q27 0 45 -18.5t18 -45.5t-18 -45t-45 -18h-623q-27 0 -45 18t-18 45zM222.5 1770.5 q7.5 23.5 29.5 37.5q23 14 47.5 7t36.5 -29l170 -293q10 -23 4 -47.5t-28 -38.5q-25 -14 -49.5 -7t-36.5 29l-170 295q-11 23 -3.5 46.5z" />
<glyph unicode="&#xc9;" horiz-adv-x="901" d="M76 63v1182q0 27 18.5 45.5t44.5 18.5h623q27 0 45 -18.5t18 -45.5t-18 -45t-45 -18h-559v-457h373q27 0 45 -18.5t18 -44.5q0 -27 -18.5 -45.5t-44.5 -18.5h-373v-471h559q27 0 45 -18.5t18 -45.5t-18 -45t-45 -18h-623q-27 0 -45 18t-18 45zM429.5 1442.5 q-7.5 23.5 3.5 46.5l170 295q12 23 36.5 29.5t49.5 -7.5q23 -14 28.5 -38.5t-4.5 -47.5l-170 -293q-12 -23 -36.5 -30t-47.5 8q-22 14 -29.5 37.5z" />
<glyph unicode="&#xca;" horiz-adv-x="882" d="M66 63v1182q0 27 18.5 45.5t44.5 18.5h623q27 0 45 -18.5t18 -45.5t-18 -45t-45 -18h-559v-457h373q27 0 45 -18.5t18 -44.5q0 -27 -18.5 -45.5t-44.5 -18.5h-373v-471h559q27 0 45 -18.5t18 -45.5t-18 -45t-45 -18h-623q-27 0 -45 18t-18 45zM98 1456.5q0 26.5 19 44.5 l284 273q18 18 45 18t46 -18l2 -2l284 -266q18 -18 18.5 -45t-18.5 -46q-18 -18 -44.5 -18t-45.5 18l-242 228l-239 -232q-18 -18 -45 -18t-45 18q-19 19 -19 45.5z" />
<glyph unicode="&#xcb;" horiz-adv-x="831" d="M53 63v1182q0 27 18.5 45.5t44.5 18.5h623q27 0 45 -18.5t18 -45.5t-18 -45t-45 -18h-559v-457h373q27 0 45 -18.5t18 -44.5q0 -27 -18.5 -45.5t-44.5 -18.5h-373v-471h559q27 0 45 -18.5t18 -45.5t-18 -45t-45 -18h-623q-27 0 -45 18t-18 45zM188 1518q0 35 24.5 59.5 t59.5 24.5t59.5 -25t24.5 -59q0 -35 -24.5 -59.5t-59.5 -24.5t-59.5 24.5t-24.5 59.5zM512 1518q0 35 24.5 59.5t59.5 24.5t59.5 -25t24.5 -59q0 -35 -24.5 -59.5t-59.5 -24.5t-59.5 24.5t-24.5 59.5z" />
<glyph unicode="&#xcc;" horiz-adv-x="202" d="M47 63v1182q0 27 18.5 45.5t45.5 18.5t45 -18.5t18 -45.5v-1182q0 -27 -18 -45t-45 -18t-45.5 18t-18.5 45zM-123.5 1772.5q7.5 23.5 29.5 37.5q23 14 47.5 7t36.5 -29l170 -293q10 -23 4 -47.5t-28 -38.5q-25 -14 -49.5 -7t-36.5 29l-170 295q-11 23 -3.5 46.5z" />
<glyph unicode="&#xcd;" horiz-adv-x="208" d="M43 63v1182q0 27 18.5 45.5t45.5 18.5t45 -18.5t18 -45.5v-1182q0 -27 -18 -45t-45 -18t-45.5 18t-18.5 45zM52.5 1446.5q-7.5 23.5 3.5 46.5l170 295q12 23 36.5 29.5t49.5 -7.5q23 -14 28.5 -38.5t-4.5 -47.5l-170 -293q-12 -23 -36.5 -30t-47.5 8q-22 14 -29.5 37.5z " />
<glyph unicode="&#xce;" horiz-adv-x="221" d="M49 63v1182q0 27 18.5 45.5t45.5 18.5t45 -18.5t18 -45.5v-1182q0 -27 -18 -45t-45 -18t-45.5 18t-18.5 45zM-224 1509.5q0 26.5 19 44.5l284 273q18 18 45 18t46 -18l2 -2l284 -266q18 -18 18.5 -45t-18.5 -46q-18 -18 -44.5 -18t-45.5 18l-242 228l-239 -232 q-18 -18 -45 -18t-45 18q-19 19 -19 45.5z" />
<glyph unicode="&#xcf;" horiz-adv-x="225" d="M47 63v1182q0 27 18.5 45.5t45.5 18.5t45 -18.5t18 -45.5v-1182q0 -27 -18 -45t-45 -18t-45.5 18t-18.5 45zM-133 1518q0 35 24.5 59.5t59.5 24.5t59.5 -25t24.5 -59q0 -35 -24.5 -59.5t-59.5 -24.5t-59.5 24.5t-24.5 59.5zM191 1518q0 35 24.5 59.5t59.5 24.5t59.5 -25 t24.5 -59q0 -35 -24.5 -59.5t-59.5 -24.5t-59.5 24.5t-24.5 59.5z" />
<glyph unicode="&#xd0;" horiz-adv-x="1300" d="M37 614q0 27 18.5 45.5t44.5 18.5h95v567q0 27 18 45.5t45 18.5h352q135 0 254 -52.5t208 -141.5t140.5 -209t51.5 -255t-51.5 -253.5t-140.5 -207t-208 -139.5t-254 -51h-352q-27 0 -45 18.5t-18 44.5v488h-95q-27 0 -45 18t-18 45zM322 127h288q109 0 205 41t168 111.5 t113 167t41 204.5q0 109 -41 205t-113 169t-168 115t-205 42h-288v-504h108q27 0 45.5 -18.5t18.5 -45.5t-18.5 -45t-45.5 -18h-108v-424z" />
<glyph unicode="&#xd1;" horiz-adv-x="1079" d="M63 63v1182q0 27 18.5 45.5t45.5 18.5q23 0 34 -9.5t23 -25.5l705 -998v969q0 27 18.5 45.5t44.5 18.5q27 0 45.5 -18.5t18.5 -45.5v-1182q0 -27 -18.5 -45t-45.5 -18q-23 0 -36 13.5t-25 29.5l-701 991v-971q0 -27 -18.5 -45t-44.5 -18q-27 0 -45.5 18t-18.5 45z M131 1460.5q0 26.5 19 44.5q20 27 47.5 55.5t58.5 52t65.5 39t71.5 15.5q43 0 85 -24.5t82 -54.5t75 -54.5t63 -24.5q23 0 45.5 13.5t41 32t33 38t22.5 33.5q14 20 36.5 26.5t43.5 -5.5q23 -14 27.5 -38t-7.5 -44q-16 -33 -40.5 -65t-56.5 -56.5t-69 -38.5t-76 -14 q-43 0 -81.5 24.5t-76.5 53t-74 53t-73 24.5q-25 0 -47 -12t-42.5 -30.5t-37 -39t-30.5 -37.5q-14 -20 -38 -23t-44 13q-23 17 -23 43.5z" />
<glyph unicode="&#xd2;" horiz-adv-x="1376" d="M37 651q0 135 51 254t139 208t207 140.5t254 51.5t254 -51.5t208 -140.5t140 -208t51 -254t-51 -253.5t-140 -207t-208 -139.5t-254 -51t-254 51t-207 139.5t-139 207t-51 253.5zM164 651q0 -109 41 -205t111.5 -166.5t167 -111.5t204.5 -41q109 0 205 41t168 111.5 t113 167t41 204.5q0 109 -41 205t-113 168t-168 113t-205 41t-205 -41t-166.5 -113t-111.5 -168t-41 -205zM451.5 1770.5q7.5 23.5 29.5 37.5q23 14 47.5 7t36.5 -29l170 -293q10 -23 4 -47.5t-28 -38.5q-25 -14 -49.5 -7t-36.5 29l-170 295q-11 23 -3.5 46.5z" />
<glyph unicode="&#xd3;" horiz-adv-x="1386" d="M43 651q0 135 51 254t139 208t207 140.5t254 51.5t254 -51.5t208 -140.5t140 -208t51 -254t-51 -253.5t-140 -207t-208 -139.5t-254 -51t-254 51t-207 139.5t-139 207t-51 253.5zM170 651q0 -109 41 -205t111.5 -166.5t167 -111.5t204.5 -41q109 0 205 41t168 111.5 t113 167t41 204.5q0 109 -41 205t-113 168t-168 113t-205 41t-205 -41t-166.5 -113t-111.5 -168t-41 -205zM639.5 1444.5q-7.5 23.5 3.5 46.5l170 295q12 23 36.5 29.5t49.5 -7.5q23 -14 28.5 -38.5t-4.5 -47.5l-170 -293q-12 -23 -36.5 -30t-47.5 8q-22 14 -29.5 37.5z" />
<glyph unicode="&#xd4;" horiz-adv-x="1374" d="M39 651q0 135 51 254t139 208t207 140.5t254 51.5t254 -51.5t208 -140.5t140 -208t51 -254t-51 -253.5t-140 -207t-208 -139.5t-254 -51t-254 51t-207 139.5t-139 207t-51 253.5zM166 651q0 -109 41 -205t111.5 -166.5t167 -111.5t204.5 -41q109 0 205 41t168 111.5 t113 167t41 204.5q0 109 -41 205t-113 168t-168 113t-205 41t-205 -41t-166.5 -113t-111.5 -168t-41 -205zM344 1456.5q0 26.5 19 44.5l284 273q18 18 45 18t46 -18l2 -2l284 -266q18 -18 18.5 -45t-18.5 -46q-18 -18 -44.5 -18t-45.5 18l-242 228l-239 -232 q-18 -18 -45 -18t-45 18q-19 19 -19 45.5z" />
<glyph unicode="&#xd5;" horiz-adv-x="1380" d="M37 651q0 135 51 254t139 208t207 140.5t254 51.5t254 -51.5t208 -140.5t140 -208t51 -254t-51 -253.5t-140 -207t-208 -139.5t-254 -51t-254 51t-207 139.5t-139 207t-51 253.5zM164 651q0 -109 41 -205t111.5 -166.5t167 -111.5t204.5 -41q109 0 205 41t168 111.5 t113 167t41 204.5q0 109 -41 205t-113 168t-168 113t-205 41t-205 -41t-166.5 -113t-111.5 -168t-41 -205zM270 1456.5q0 26.5 19 44.5q20 27 47.5 55.5t58.5 52t65.5 39t71.5 15.5q43 0 85 -24.5t82 -54.5t75 -54.5t63 -24.5q23 0 45.5 13.5t41 32t33 38t22.5 33.5 q14 20 36.5 26.5t43.5 -5.5q23 -14 27.5 -38t-7.5 -44q-16 -33 -40.5 -65t-56.5 -56.5t-69 -38.5t-76 -14q-43 0 -81.5 24.5t-76.5 53t-74 53t-73 24.5q-25 0 -47 -12t-42.5 -30.5t-37 -39t-30.5 -37.5q-14 -20 -38 -23t-44 13q-23 17 -23 43.5z" />
<glyph unicode="&#xd6;" horiz-adv-x="1406" d="M49 651q0 135 51 254t139 208t207 140.5t254 51.5t254 -51.5t208 -140.5t140 -208t51 -254t-51 -253.5t-140 -207t-208 -139.5t-254 -51t-254 51t-207 139.5t-139 207t-51 253.5zM176 651q0 -109 41 -205t111.5 -166.5t167 -111.5t204.5 -41q109 0 205 41t168 111.5 t113 167t41 204.5q0 109 -41 205t-113 168t-168 113t-205 41t-205 -41t-166.5 -113t-111.5 -168t-41 -205zM459 1518q0 35 24.5 59.5t59.5 24.5t59.5 -25t24.5 -59q0 -35 -24.5 -59.5t-59.5 -24.5t-59.5 24.5t-24.5 59.5zM783 1518q0 35 24.5 59.5t59.5 24.5t59.5 -25 t24.5 -59q0 -35 -24.5 -59.5t-59.5 -24.5t-59.5 24.5t-24.5 59.5z" />
<glyph unicode="&#xd7;" horiz-adv-x="997" d="M53 107.5q0 25.5 19 46.5l338 342l-334 335q-18 20 -19.5 46t17.5 45q20 18 45.5 19t44.5 -17l336 -338l334 336q18 18 43.5 17t46.5 -19q18 -18 17 -44t-19 -47l-334 -333l338 -338q18 -20 18 -46t-18 -44q-20 -18 -46 -18.5t-44 20.5l-336 336l-338 -340 q-18 -20 -44 -20.5t-46 17.5q-19 19 -19 44.5z" />
<glyph unicode="&#xd8;" horiz-adv-x="1372" d="M33 651q0 135 51 254t139 208t207 140.5t254 51.5t254 -51.5t208 -140.5t140 -208t51 -254t-51 -253.5t-140 -207t-208 -139.5t-254 -51t-254 51t-207 139.5t-139 207t-51 253.5zM160 651q0 -109 41 -205t111.5 -166.5t167 -111.5t204.5 -41q109 0 205 41t168 111.5 t113 167t41 204.5q0 109 -41 205t-113 168t-168 113t-205 41t-205 -41t-166.5 -113t-111.5 -168t-41 -205zM424 59l394 1229q8 25 31.5 37t47.5 4q25 -10 37.5 -33t3.5 -47l-393 -1229q-10 -25 -32.5 -37t-47.5 -4q-27 8 -39 31.5t-2 48.5z" />
<glyph unicode="&#xd9;" horiz-adv-x="1017" d="M55 455v788q0 23 18.5 44.5t47.5 21.5t45 -20.5t16 -47.5v-786q0 -68 25.5 -127.5t69.5 -103.5t104.5 -70.5t128.5 -26.5t127 26.5t104 70.5t72 103.5t27 127.5v788q0 23 18 44.5t47 21.5t45.5 -22.5t16.5 -45.5v-786q0 -94 -37 -177t-98.5 -144.5t-144.5 -97.5t-177 -36 t-177 36t-144.5 97.5t-97.5 144.5t-36 177zM291.5 1768.5q7.5 23.5 29.5 37.5q23 14 47.5 7t36.5 -29l170 -293q10 -23 4 -47.5t-28 -38.5q-25 -14 -49.5 -7t-36.5 29l-170 295q-11 23 -3.5 46.5z" />
<glyph unicode="&#xda;" horiz-adv-x="1011" d="M51 455v788q0 23 18.5 44.5t47.5 21.5t45 -20.5t16 -47.5v-786q0 -68 25.5 -127.5t69.5 -103.5t104.5 -70.5t128.5 -26.5t127 26.5t104 70.5t72 103.5t27 127.5v788q0 23 18 44.5t47 21.5t45.5 -22.5t16.5 -45.5v-786q0 -94 -37 -177t-98.5 -144.5t-144.5 -97.5t-177 -36 t-177 36t-144.5 97.5t-97.5 144.5t-36 177zM459.5 1442.5q-7.5 23.5 3.5 46.5l170 295q12 23 36.5 29.5t49.5 -7.5q23 -14 28.5 -38.5t-4.5 -47.5l-170 -293q-12 -23 -36.5 -30t-47.5 8q-22 14 -29.5 37.5z" />
<glyph unicode="&#xdb;" horiz-adv-x="989" d="M41 455v788q0 23 18.5 44.5t47.5 21.5t45 -20.5t16 -47.5v-786q0 -68 25.5 -127.5t69.5 -103.5t104.5 -70.5t128.5 -26.5t127 26.5t104 70.5t72 103.5t27 127.5v788q0 23 18 44.5t47 21.5t45.5 -22.5t16.5 -45.5v-786q0 -94 -37 -177t-98.5 -144.5t-144.5 -97.5t-177 -36 t-177 36t-144.5 97.5t-97.5 144.5t-36 177zM161 1456.5q0 26.5 19 44.5l284 273q18 18 45 18t46 -18l2 -2l284 -266q18 -18 18.5 -45t-18.5 -46q-18 -18 -44.5 -18t-45.5 18l-242 228l-239 -232q-18 -18 -45 -18t-45 18q-19 19 -19 45.5z" />
<glyph unicode="&#xdc;" horiz-adv-x="1013" d="M43 455v788q0 23 18.5 44.5t47.5 21.5t45 -20.5t16 -47.5v-786q0 -68 25.5 -127.5t69.5 -103.5t104.5 -70.5t128.5 -26.5t127 26.5t104 70.5t72 103.5t27 127.5v788q0 23 18 44.5t47 21.5t45.5 -22.5t16.5 -45.5v-786q0 -94 -37 -177t-98.5 -144.5t-144.5 -97.5t-177 -36 t-177 36t-144.5 97.5t-97.5 144.5t-36 177zM270 1518q0 35 24.5 59.5t59.5 24.5t59.5 -25t24.5 -59q0 -35 -24.5 -59.5t-59.5 -24.5t-59.5 24.5t-24.5 59.5zM594 1518q0 35 24.5 59.5t59.5 24.5t59.5 -25t24.5 -59q0 -35 -24.5 -59.5t-59.5 -24.5t-59.5 24.5t-24.5 59.5z " />
<glyph unicode="&#xdd;" horiz-adv-x="983" d="M30 1255q5 25 27 41q17 12 36 13q6 0 11 -1q25 -5 41 -28l344 -514l344 514q16 23 41 28q6 1 12 1q18 0 36 -13q23 -14 27 -40q1 -7 1 -13q0 -18 -10 -35l-387 -575v-570q0 -27 -18.5 -45t-45.5 -18t-45 18.5t-18 44.5v570l-385 575q-12 17 -13 36q1 5 2 11z M418.5 1442.5q-7.5 23.5 3.5 46.5l170 295q12 23 36.5 29.5t49.5 -7.5q23 -14 28.5 -38.5t-4.5 -47.5l-170 -293q-12 -23 -36.5 -30t-47.5 8q-22 14 -29.5 37.5z" />
<glyph unicode="&#xde;" horiz-adv-x="1009" d="M29 -307v1548q0 20 18.5 44t48.5 22q23 0 42.5 -19.5t19.5 -46.5v-440q45 37 94 64.5t95 46t87 27.5t70 9q100 0 187 -39t151.5 -103.5t100.5 -151.5t36 -181q0 -98 -38 -184t-103.5 -150.5t-151.5 -101.5t-180 -37q-102 0 -193.5 43t-156.5 115v-465q0 -27 -18.5 -45.5 t-45.5 -18.5t-45 18.5t-18 45.5zM158 473q0 -72 28.5 -135.5t75.5 -110.5t110.5 -74.5t133.5 -27.5t132 27.5t110.5 74.5t77 110.5t28.5 135.5t-28.5 135.5t-77 111.5t-111 75.5t-131.5 27.5q-70 0 -133.5 -29.5t-110.5 -78.5t-75.5 -111.5t-28.5 -130.5z" />
<glyph unicode="&#xdf;" horiz-adv-x="851" d="M47 49v944q0 78 29.5 147.5t81 121t120 81t146.5 29.5t147.5 -29.5t120.5 -81t81 -121t30 -147.5q0 -98 -46 -181t-124 -134q76 -53 122 -135t46 -181q0 -78 -30 -146.5t-81 -119.5t-119.5 -80.5t-146.5 -29.5q-27 0 -45.5 18.5t-18.5 44.5q0 27 18.5 45.5t45.5 18.5 q119 10 186.5 81.5t67.5 167.5q0 51 -18.5 95.5t-52.5 78t-81 54t-102 24.5q-27 0 -45.5 18.5t-18.5 45.5t18.5 45t45.5 18q53 0 99 19.5t81 54.5t54.5 80t19.5 98q0 51 -19.5 97.5t-54.5 81t-81 54t-99 19.5t-98 -19.5t-80 -54t-54.5 -81t-19.5 -97.5v-944q0 -27 -18.5 -45 t-44.5 -18q-27 0 -44.5 18t-17.5 45z" />
<glyph unicode="&#xe0;" horiz-adv-x="1093" d="M53 494q0 102 38 193t104.5 158.5t157.5 106.5t198 39q98 0 187 -40t156.5 -107.5t107.5 -157.5t40 -192v-433q0 -27 -18.5 -45t-44.5 -18q-27 0 -45.5 18.5t-18.5 44.5v125q-68 -76 -163 -130t-205 -54q-102 0 -191.5 37t-157 102.5t-106.5 156t-39 196.5zM180 494 q0 -76 28.5 -142.5t79 -117t117 -79t142.5 -28.5q74 0 139 27.5t115.5 77t80 116t33.5 146.5q0 76 -28.5 143.5t-78.5 117.5t-118 78.5t-143 28.5q-76 0 -142.5 -28.5t-117 -78.5t-79 -117.5t-28.5 -143.5zM302.5 1469.5q7.5 23.5 29.5 37.5q23 14 47.5 7t36.5 -29l170 -293 q10 -23 4 -47.5t-28 -38.5q-25 -14 -49.5 -7t-36.5 29l-170 295q-11 23 -3.5 46.5z" />
<glyph unicode="&#xe1;" horiz-adv-x="1083" d="M45 494q0 102 38 193t104.5 158.5t157.5 106.5t198 39q98 0 187 -40t156.5 -107.5t107.5 -157.5t40 -192v-433q0 -27 -18.5 -45t-44.5 -18q-27 0 -45.5 18.5t-18.5 44.5v125q-68 -76 -163 -130t-205 -54q-102 0 -191.5 37t-157 102.5t-106.5 156t-39 196.5zM172 494 q0 -76 28.5 -142.5t79 -117t117 -79t142.5 -28.5q74 0 139 27.5t115.5 77t80 116t33.5 146.5q0 76 -28.5 143.5t-78.5 117.5t-118 78.5t-143 28.5q-76 0 -142.5 -28.5t-117 -78.5t-79 -117.5t-28.5 -143.5zM488.5 1145.5q-7.5 23.5 3.5 46.5l170 295q12 23 36.5 29.5 t49.5 -7.5q23 -14 28.5 -38.5t-4.5 -47.5l-170 -293q-12 -23 -36.5 -30t-47.5 8q-22 14 -29.5 37.5z" />
<glyph unicode="&#xe2;" horiz-adv-x="1077" d="M43 498q0 102 38 193t104.5 158.5t157.5 106.5t198 39q98 0 187 -40t156.5 -107.5t107.5 -157.5t40 -192v-433q0 -27 -18.5 -45t-44.5 -18q-27 0 -45.5 18.5t-18.5 44.5v125q-68 -76 -163 -130t-205 -54q-102 0 -191.5 37t-157 102.5t-106.5 156t-39 196.5zM170 498 q0 -76 28.5 -142.5t79 -117t117 -79t142.5 -28.5q74 0 139 27.5t115.5 77t80 116t33.5 146.5q0 76 -28.5 143.5t-78.5 117.5t-118 78.5t-143 28.5q-76 0 -142.5 -28.5t-117 -78.5t-79 -117.5t-28.5 -143.5zM192 1161.5q0 26.5 19 44.5l284 273q18 18 45 18t46 -18l2 -2 l284 -266q18 -18 18.5 -45t-18.5 -46q-18 -18 -44.5 -18t-45.5 18l-242 228l-239 -232q-18 -18 -45 -18t-45 18q-19 19 -19 45.5z" />
<glyph unicode="&#xe3;" horiz-adv-x="1089" d="M49 494q0 102 38 193t104.5 158.5t157.5 106.5t198 39q98 0 187 -40t156.5 -107.5t107.5 -157.5t40 -192v-433q0 -27 -18.5 -45t-44.5 -18q-27 0 -45.5 18.5t-18.5 44.5v125q-68 -76 -163 -130t-205 -54q-102 0 -191.5 37t-157 102.5t-106.5 156t-39 196.5zM176 494 q0 -76 28.5 -142.5t79 -117t117 -79t142.5 -28.5q74 0 139 27.5t115.5 77t80 116t33.5 146.5q0 76 -28.5 143.5t-78.5 117.5t-118 78.5t-143 28.5q-76 0 -142.5 -28.5t-117 -78.5t-79 -117.5t-28.5 -143.5zM147 1141.5q0 26.5 19 44.5q20 27 47.5 55.5t58.5 52t65.5 39 t71.5 15.5q43 0 85 -24.5t82 -54.5t75 -54.5t63 -24.5q23 0 45.5 13.5t41 32t33 38t22.5 33.5q14 20 36.5 26.5t43.5 -5.5q23 -14 27.5 -38t-7.5 -44q-16 -33 -40.5 -65t-56.5 -56.5t-69 -38.5t-76 -14q-43 0 -81.5 24.5t-76.5 53t-74 53t-73 24.5q-25 0 -47 -12 t-42.5 -30.5t-37 -39t-30.5 -37.5q-14 -20 -38 -23t-44 13q-23 17 -23 43.5z" />
<glyph unicode="&#xe4;" horiz-adv-x="1093" d="M45 494q0 102 38 193t104.5 158.5t157.5 106.5t198 39q98 0 187 -40t156.5 -107.5t107.5 -157.5t40 -192v-433q0 -27 -18.5 -45t-44.5 -18q-27 0 -45.5 18.5t-18.5 44.5v125q-68 -76 -163 -130t-205 -54q-102 0 -191.5 37t-157 102.5t-106.5 156t-39 196.5zM172 494 q0 -76 28.5 -142.5t79 -117t117 -79t142.5 -28.5q74 0 139 27.5t115.5 77t80 116t33.5 146.5q0 76 -28.5 143.5t-78.5 117.5t-118 78.5t-143 28.5q-76 0 -142.5 -28.5t-117 -78.5t-79 -117.5t-28.5 -143.5zM299 1219q0 35 24.5 59.5t59.5 24.5t59.5 -25t24.5 -59 q0 -35 -24.5 -59.5t-59.5 -24.5t-59.5 24.5t-24.5 59.5zM623 1219q0 35 24.5 59.5t59.5 24.5t59.5 -25t24.5 -59q0 -35 -24.5 -59.5t-59.5 -24.5t-59.5 24.5t-24.5 59.5z" />
<glyph unicode="&#xe5;" horiz-adv-x="1077" d="M158 1495q0 80 29.5 149.5t82 121.5t121 82t148.5 30t149.5 -30t121.5 -82t82 -121.5t30 -149.5t-30 -148.5t-82 -121t-121.5 -82t-149.5 -29.5t-148.5 29.5t-121 82t-82 121t-29.5 148.5zM285 1495q0 -53 19.5 -99.5t54 -81t81 -54t99.5 -19.5t99 19.5t81 54t55.5 80.5 t20.5 100q0 53 -20.5 99t-55.5 81t-81 55.5t-99 20.5t-99.5 -20.5t-81 -55.5t-54 -81t-19.5 -99zM43 494q0 102 38 193t104.5 158.5t157.5 106.5t198 39q98 0 187 -40t156.5 -107.5t107.5 -157.5t40 -192v-433q0 -27 -18.5 -45t-44.5 -18q-27 0 -45.5 18.5t-18.5 44.5v125 q-68 -76 -163 -130t-205 -54q-102 0 -191.5 37t-157 102.5t-106.5 156t-39 196.5zM170 494q0 -76 28.5 -142.5t79 -117t117 -79t142.5 -28.5q74 0 139 27.5t115.5 77t80 116t33.5 146.5q0 76 -28.5 143.5t-78.5 117.5t-118 78.5t-143 28.5q-76 0 -142.5 -28.5t-117 -78.5 t-79 -117.5t-28.5 -143.5z" />
<glyph unicode="&#xe6;" horiz-adv-x="1918" d="M39 494q0 102 38 193t104.5 158.5t157.5 106.5t198 39q98 0 187 -40t156.5 -107.5t107.5 -157.5t40 -192v-433q0 -27 -18.5 -45t-44.5 -18q-27 0 -45.5 18.5t-18.5 44.5v125q-68 -76 -163 -130t-205 -54q-102 0 -191.5 37t-157 102.5t-106.5 156t-39 196.5zM166 494 q0 -76 28.5 -142.5t79 -117t117 -79t142.5 -28.5q74 0 139 27.5t115.5 77t80 116t33.5 146.5q0 76 -28.5 143.5t-78.5 117.5t-118 78.5t-143 28.5q-76 0 -142.5 -28.5t-117 -78.5t-79 -117.5t-28.5 -143.5zM901 494q0 102 38 191t104.5 155.5t157.5 106.5t197 44 q98 0 185.5 -39t155 -104.5t107.5 -153.5t44 -188q1 -6 1 -11q0 -27 -18 -42q-22 -18 -46 -19h-795q10 -66 43 -122t81 -97t109.5 -64.5t128.5 -23.5q76 0 141.5 27.5t116.5 76.5q18 18 45 18.5t46 -18.5q18 -18 18 -44.5t-18 -45.5q-68 -76 -153 -107.5t-196 -31.5 q-102 0 -191 37t-156.5 102.5t-106.5 156t-39 196.5zM1034 561h723q-12 63 -45 118.5t-81 95.5t-108.5 63.5t-128.5 23.5t-128 -23.5t-108 -63.5t-80 -95.5t-44 -118.5z" />
<glyph unicode="&#xe7;" horiz-adv-x="935" d="M27 492q0 102 38 191t104.5 155.5t157.5 106.5t198 44q61 0 113.5 -15.5t94.5 -37t74.5 -46t53.5 -42.5q12 -10 21 -38t-13 -50q-18 -18 -45 -18.5t-45 18.5q-51 45 -117 72.5t-141 27.5q-76 0 -142.5 -28.5t-117 -79t-79 -118t-28.5 -142.5q0 -76 28.5 -142.5t79 -117 t117 -79t142.5 -28.5t141 27.5t117 76.5q18 18 44.5 18.5t45.5 -18.5q17 -17 17 -43q0 -29 -23 -53q-18 -18 -50 -41.5t-76 -44t-98.5 -34t-117.5 -13.5q-102 0 -191.5 37t-157 102.5t-106.5 156t-39 196.5zM318 -217q0 23 17 40.5t40 17.5t40 -17.5t17 -40.5 q4 -29 21.5 -46t42.5 -17q27 0 45 18.5t18 44.5q0 25 -17.5 43.5t-45.5 20.5q-23 0 -40.5 18.5t-17.5 46.5v191h115v-150q53 -18 87 -64t34 -106q0 -74 -52 -126t-126 -52t-126 52t-52 126z" />
<glyph unicode="&#xe8;" horiz-adv-x="1085" d="M47 494q0 102 38 191t104.5 155.5t157.5 106.5t197 44q98 0 185.5 -39t155 -104.5t107.5 -153.5t44 -188q1 -6 1 -11q0 -27 -18 -42q-22 -18 -46 -19h-795q10 -66 43 -122t81 -97t109.5 -64.5t128.5 -23.5q76 0 141.5 27.5t116.5 76.5q18 18 45 18.5t46 -18.5 q18 -18 18 -44.5t-18 -45.5q-68 -76 -153 -107.5t-196 -31.5q-102 0 -191 37t-156.5 102.5t-106.5 156t-39 196.5zM180 561h723q-12 63 -45 118.5t-81 95.5t-108.5 63.5t-128.5 23.5t-128 -23.5t-108 -63.5t-80 -95.5t-44 -118.5zM304.5 1469.5q7.5 23.5 29.5 37.5 q23 14 47.5 7t36.5 -29l170 -293q10 -23 4 -47.5t-28 -38.5q-25 -14 -49.5 -7t-36.5 29l-170 295q-11 23 -3.5 46.5z" />
<glyph unicode="&#xe9;" horiz-adv-x="1085" d="M47 494q0 102 38 191t104.5 155.5t157.5 106.5t197 44q98 0 185.5 -39t155 -104.5t107.5 -153.5t44 -188q1 -6 1 -11q0 -27 -18 -42q-22 -18 -46 -19h-795q10 -66 43 -122t81 -97t109.5 -64.5t128.5 -23.5q76 0 141.5 27.5t116.5 76.5q18 18 45 18.5t46 -18.5 q18 -18 18 -44.5t-18 -45.5q-68 -76 -153 -107.5t-196 -31.5q-102 0 -191 37t-156.5 102.5t-106.5 156t-39 196.5zM180 561h723q-12 63 -45 118.5t-81 95.5t-108.5 63.5t-128.5 23.5t-128 -23.5t-108 -63.5t-80 -95.5t-44 -118.5zM490.5 1145.5q-7.5 23.5 3.5 46.5l170 295 q12 23 36.5 29.5t49.5 -7.5q23 -14 28.5 -38.5t-4.5 -47.5l-170 -293q-12 -23 -36.5 -30t-47.5 8q-22 14 -29.5 37.5z" />
<glyph unicode="&#xea;" horiz-adv-x="1085" d="M47 494q0 102 38 191t104.5 155.5t157.5 106.5t197 44q98 0 185.5 -39t155 -104.5t107.5 -153.5t44 -188q1 -6 1 -11q0 -27 -18 -42q-22 -18 -46 -19h-795q10 -66 43 -122t81 -97t109.5 -64.5t128.5 -23.5q76 0 141.5 27.5t116.5 76.5q18 18 45 18.5t46 -18.5 q18 -18 18 -44.5t-18 -45.5q-68 -76 -153 -107.5t-196 -31.5q-102 0 -191 37t-156.5 102.5t-106.5 156t-39 196.5zM180 561h723q-12 63 -45 118.5t-81 95.5t-108.5 63.5t-128.5 23.5t-128 -23.5t-108 -63.5t-80 -95.5t-44 -118.5zM174 1161.5q0 26.5 19 44.5l284 273 q18 18 45 18t46 -18l2 -2l284 -266q18 -18 18.5 -45t-18.5 -46q-18 -18 -44.5 -18t-45.5 18l-242 228l-239 -232q-18 -18 -45 -18t-45 18q-19 19 -19 45.5z" />
<glyph unicode="&#xeb;" horiz-adv-x="1099" d="M53 494q0 102 38 191t104.5 155.5t157.5 106.5t197 44q98 0 185.5 -39t155 -104.5t107.5 -153.5t44 -188q1 -6 1 -11q0 -27 -18 -42q-22 -18 -46 -19h-795q10 -66 43 -122t81 -97t109.5 -64.5t128.5 -23.5q76 0 141.5 27.5t116.5 76.5q18 18 45 18.5t46 -18.5 q18 -18 18 -44.5t-18 -45.5q-68 -76 -153 -107.5t-196 -31.5q-102 0 -191 37t-156.5 102.5t-106.5 156t-39 196.5zM186 561h723q-12 63 -45 118.5t-81 95.5t-108.5 63.5t-128.5 23.5t-128 -23.5t-108 -63.5t-80 -95.5t-44 -118.5zM291 1219q0 35 24.5 59.5t59.5 24.5 t59.5 -25t24.5 -59q0 -35 -24.5 -59.5t-59.5 -24.5t-59.5 24.5t-24.5 59.5zM615 1219q0 35 24.5 59.5t59.5 24.5t59.5 -25t24.5 -59q0 -35 -24.5 -59.5t-59.5 -24.5t-59.5 24.5t-24.5 59.5z" />
<glyph unicode="&#xec;" horiz-adv-x="210" d="M-121.5 1471.5q7.5 23.5 29.5 37.5q23 14 47.5 7t36.5 -29l170 -293q10 -23 4 -47.5t-28 -38.5q-25 -14 -49.5 -7t-36.5 29l-170 295q-11 23 -3.5 46.5zM51 63v855q0 27 18.5 45t45.5 18t45 -18.5t18 -44.5v-855q0 -27 -18 -45t-45 -18t-45.5 18t-18.5 45z" />
<glyph unicode="&#xed;" horiz-adv-x="219" d="M47 63v855q0 27 18.5 45t45.5 18t45 -18.5t18 -44.5v-855q0 -27 -18 -45t-45 -18t-45.5 18t-18.5 45zM52.5 1145.5q-7.5 23.5 3.5 46.5l170 295q12 23 36.5 29.5t49.5 -7.5q23 -14 28.5 -38.5t-4.5 -47.5l-170 -293q-12 -23 -36.5 -30t-47.5 8q-22 14 -29.5 37.5z" />
<glyph unicode="&#xee;" horiz-adv-x="241" d="M-221 1142.5q0 26.5 19 44.5l284 273q18 18 45 18t46 -18l2 -2l284 -266q18 -18 18.5 -45t-18.5 -46q-18 -18 -44.5 -18t-45.5 18l-242 228l-239 -232q-18 -18 -45 -18t-45 18q-19 19 -19 45.5zM61 63v855q0 27 18.5 45t45.5 18t45 -18.5t18 -44.5v-855q0 -27 -18 -45 t-45 -18t-45.5 18t-18.5 45z" />
<glyph unicode="&#xef;" horiz-adv-x="239" d="M-125 1219q0 35 24.5 59.5t59.5 24.5t59.5 -25t24.5 -59q0 -35 -24.5 -59.5t-59.5 -24.5t-59.5 24.5t-24.5 59.5zM199 1219q0 35 24.5 59.5t59.5 24.5t59.5 -25t24.5 -59q0 -35 -24.5 -59.5t-59.5 -24.5t-59.5 24.5t-24.5 59.5zM57 63v855q0 27 18.5 45t45.5 18t45 -18.5 t18 -44.5v-855q0 -27 -18 -45t-45 -18t-45.5 18t-18.5 45z" />
<glyph unicode="&#xf0;" horiz-adv-x="829" d="M33 387q0 80 29.5 149.5t82 122t121 82t148.5 29.5q74 0 139 -25.5t117 -72.5v321q0 14 -7.5 47t-30 67t-63.5 59.5t-108 27.5q-27 0 -45.5 18.5t-18.5 44.5q0 27 18.5 45.5t45.5 18.5q94 -2 157.5 -36t102.5 -84t56.5 -106.5t17.5 -101.5l2 -606q0 -80 -30 -148.5 t-82 -120.5t-121.5 -82t-149.5 -30t-148.5 30t-121 82t-82 120.5t-29.5 148.5zM160 387q0 -53 19.5 -99t54 -81t80.5 -54.5t100 -19.5q53 0 99 19.5t81 54.5t55.5 81t20.5 99t-20.5 99t-55.5 81t-81 55.5t-99 20.5t-99.5 -20.5t-81 -55.5t-54 -81t-19.5 -99z" />
<glyph unicode="&#xf1;" horiz-adv-x="847" d="M53 63v869q0 27 18.5 45t45.5 18t45 -18.5t18 -44.5v-27q47 41 108.5 65.5t131.5 24.5q76 0 143.5 -28.5t117.5 -78.5t78.5 -118t28.5 -143v-564q0 -27 -18 -45t-45 -18t-45 18.5t-18 44.5v564q0 49 -19.5 93t-52.5 76.5t-77 51t-93 18.5t-92 -18.5t-76 -49t-51.5 -72.5 t-20.5 -89v-574q0 -27 -18.5 -45t-44.5 -18q-27 0 -45.5 18t-18.5 45zM8 1157.5q0 26.5 19 44.5q20 27 47.5 55.5t58.5 52t65.5 39t71.5 15.5q43 0 85 -24.5t82 -54.5t75 -54.5t63 -24.5q23 0 45.5 13.5t41 32t33 38t22.5 33.5q14 20 36.5 26.5t43.5 -5.5q23 -14 27.5 -38 t-7.5 -44q-16 -33 -40.5 -65t-56.5 -56.5t-69 -38.5t-76 -14q-43 0 -81.5 24.5t-76.5 53t-74 53t-73 24.5q-25 0 -47 -12t-42.5 -30.5t-37 -39t-30.5 -37.5q-14 -20 -38 -23t-44 13q-23 17 -23 43.5z" />
<glyph unicode="&#xf2;" horiz-adv-x="1105" d="M57 494q0 102 38 191t104.5 155.5t157.5 106.5t198 44q98 0 187 -40t156.5 -107.5t107.5 -157.5t40 -192q0 -100 -39 -189.5t-105.5 -157t-156.5 -106.5t-195 -39q-102 0 -191 37t-156.5 102.5t-106.5 156t-39 196.5zM184 494q0 -76 28.5 -142.5t79 -117t117 -79 t141.5 -28.5q76 0 143.5 28.5t118 79t79 117t28.5 142.5t-28.5 143.5t-79 117.5t-118 78.5t-143.5 28.5t-142 -28.5t-116.5 -78.5t-79 -117.5t-28.5 -143.5zM304.5 1469.5q7.5 23.5 29.5 37.5q23 14 47.5 7t36.5 -29l170 -293q10 -23 4 -47.5t-28 -38.5q-25 -14 -49.5 -7 t-36.5 29l-170 295q-11 23 -3.5 46.5z" />
<glyph unicode="&#xf3;" horiz-adv-x="1077" d="M43 494q0 102 38 191t104.5 155.5t157.5 106.5t198 44q98 0 187 -40t156.5 -107.5t107.5 -157.5t40 -192q0 -100 -39 -189.5t-105.5 -157t-156.5 -106.5t-195 -39q-102 0 -191 37t-156.5 102.5t-106.5 156t-39 196.5zM170 494q0 -76 28.5 -142.5t79 -117t117 -79 t141.5 -28.5q76 0 143.5 28.5t118 79t79 117t28.5 142.5t-28.5 143.5t-79 117.5t-118 78.5t-143.5 28.5t-142 -28.5t-116.5 -78.5t-79 -117.5t-28.5 -143.5zM478.5 1143.5q-7.5 23.5 3.5 46.5l170 295q12 23 36.5 29.5t49.5 -7.5q23 -14 28.5 -38.5t-4.5 -47.5l-170 -293 q-12 -23 -36.5 -30t-47.5 8q-22 14 -29.5 37.5z" />
<glyph unicode="&#xf4;" horiz-adv-x="1067" d="M39 494q0 102 38 191t104.5 155.5t157.5 106.5t198 44q98 0 187 -40t156.5 -107.5t107.5 -157.5t40 -192q0 -100 -39 -189.5t-105.5 -157t-156.5 -106.5t-195 -39q-102 0 -191 37t-156.5 102.5t-106.5 156t-39 196.5zM166 494q0 -76 28.5 -142.5t79 -117t117 -79 t141.5 -28.5q76 0 143.5 28.5t118 79t79 117t28.5 142.5t-28.5 143.5t-79 117.5t-118 78.5t-143.5 28.5t-142 -28.5t-116.5 -78.5t-79 -117.5t-28.5 -143.5zM184 1142.5q0 26.5 19 44.5l284 273q18 18 45 18t46 -18l2 -2l284 -266q18 -18 18.5 -45t-18.5 -46 q-18 -18 -44.5 -18t-45.5 18l-242 228l-239 -232q-18 -18 -45 -18t-45 18q-19 19 -19 45.5z" />
<glyph unicode="&#xf5;" horiz-adv-x="1067" d="M37 494q0 102 38 191t104.5 155.5t157.5 106.5t198 44q98 0 187 -40t156.5 -107.5t107.5 -157.5t40 -192q0 -100 -39 -189.5t-105.5 -157t-156.5 -106.5t-195 -39q-102 0 -191 37t-156.5 102.5t-106.5 156t-39 196.5zM164 494q0 -76 28.5 -142.5t79 -117t117 -79 t141.5 -28.5q76 0 143.5 28.5t118 79t79 117t28.5 142.5t-28.5 143.5t-79 117.5t-118 78.5t-143.5 28.5t-142 -28.5t-116.5 -78.5t-79 -117.5t-28.5 -143.5zM121 1155.5q0 26.5 19 44.5q20 27 47.5 55.5t58.5 52t65.5 39t71.5 15.5q43 0 85 -24.5t82 -54.5t75 -54.5 t63 -24.5q23 0 45.5 13.5t41 32t33 38t22.5 33.5q14 20 36.5 26.5t43.5 -5.5q23 -14 27.5 -38t-7.5 -44q-16 -33 -40.5 -65t-56.5 -56.5t-69 -38.5t-76 -14q-43 0 -81.5 24.5t-76.5 53t-74 53t-73 24.5q-25 0 -47 -12t-42.5 -30.5t-37 -39t-30.5 -37.5q-14 -20 -38 -23 t-44 13q-23 17 -23 43.5z" />
<glyph unicode="&#xf6;" horiz-adv-x="1060" d="M39 494q0 102 38 191t104.5 155.5t157.5 106.5t198 44q98 0 187 -40t156.5 -107.5t107.5 -157.5t40 -192q0 -100 -39 -189.5t-105.5 -157t-156.5 -106.5t-195 -39q-102 0 -191 37t-156.5 102.5t-106.5 156t-39 196.5zM166 494q0 -76 28.5 -142.5t79 -117t117 -79 t141.5 -28.5q76 0 143.5 28.5t118 79t79 117t28.5 142.5t-28.5 143.5t-79 117.5t-118 78.5t-143.5 28.5t-142 -28.5t-116.5 -78.5t-79 -117.5t-28.5 -143.5zM272 1219q0 35 24.5 59.5t59.5 24.5t59.5 -25t24.5 -59q0 -35 -24.5 -59.5t-59.5 -24.5t-59.5 24.5t-24.5 59.5z M596 1219q0 35 24.5 59.5t59.5 24.5t59.5 -25t24.5 -59q0 -35 -24.5 -59.5t-59.5 -24.5t-59.5 24.5t-24.5 59.5z" />
<glyph unicode="&#xf7;" horiz-adv-x="811" d="M6 637q0 -27 18.5 -45.5t45.5 -18.5h669q27 0 45.5 18.5t18.5 45.5t-18.5 45t-45.5 18h-669q-27 0 -45.5 -18t-18.5 -45zM319 283q0 29 21.5 51t50.5 22q33 0 53.5 -22.5t20.5 -50.5q0 -29 -20.5 -50.5t-53.5 -21.5q-29 0 -50.5 21.5t-21.5 50.5zM319 993q0 29 21.5 51.5 t50.5 22.5q33 0 53.5 -22.5t20.5 -51.5t-20.5 -50t-53.5 -21q-29 0 -50.5 21t-21.5 50z" />
<glyph unicode="&#xf8;" horiz-adv-x="1087" d="M49 494q0 102 38 191t104.5 155.5t157.5 106.5t198 44q98 0 187 -40t156.5 -107.5t107.5 -157.5t40 -192q0 -100 -39 -189.5t-105.5 -157t-156.5 -106.5t-195 -39q-102 0 -191 37t-156.5 102.5t-106.5 156t-39 196.5zM176 494q0 -76 28.5 -142.5t79 -117t117 -79 t141.5 -28.5q76 0 143.5 28.5t118 79t79 117t28.5 142.5t-28.5 143.5t-79 117.5t-118 78.5t-143.5 28.5t-142 -28.5t-116.5 -78.5t-79 -117.5t-28.5 -143.5zM288 -80l394 1229q8 25 31.5 37t47.5 4q25 -10 37.5 -33t3.5 -47l-393 -1229q-10 -25 -32.5 -37t-47.5 -4 q-27 8 -39 31.5t-2 48.5z" />
<glyph unicode="&#xf9;" horiz-adv-x="827" d="M39 369v561q0 27 18.5 45t45.5 18t45 -18.5t18 -44.5v-561q0 -49 19.5 -93.5t52.5 -77t77 -51t93 -18.5t92 18.5t75 49t51.5 72.5t21.5 89v572q0 27 18 45t45 18t45.5 -18.5t18.5 -44.5v-867q0 -27 -18.5 -45t-45.5 -18t-45 18.5t-18 44.5v27q-47 -41 -108.5 -65.5 t-131.5 -24.5q-76 0 -143.5 28.5t-117.5 79t-79 118t-29 143.5zM175.5 1469.5q7.5 23.5 29.5 37.5q23 14 47.5 7t36.5 -29l170 -293q10 -23 4 -47.5t-28 -38.5q-25 -14 -49.5 -7t-36.5 29l-170 295q-11 23 -3.5 46.5z" />
<glyph unicode="&#xfa;" horiz-adv-x="831" d="M49 369v561q0 27 18.5 45t45.5 18t45 -18.5t18 -44.5v-561q0 -49 19.5 -93.5t52.5 -77t77 -51t93 -18.5t92 18.5t75 49t51.5 72.5t21.5 89v572q0 27 18 45t45 18t45.5 -18.5t18.5 -44.5v-867q0 -27 -18.5 -45t-45.5 -18t-45 18.5t-18 44.5v27q-47 -41 -108.5 -65.5 t-131.5 -24.5q-76 0 -143.5 28.5t-117.5 79t-79 118t-29 143.5zM379.5 1145.5q-7.5 23.5 3.5 46.5l170 295q12 23 36.5 29.5t49.5 -7.5q23 -14 28.5 -38.5t-4.5 -47.5l-170 -293q-12 -23 -36.5 -30t-47.5 8q-22 14 -29.5 37.5z" />
<glyph unicode="&#xfb;" horiz-adv-x="817" d="M43 369v561q0 27 18.5 45t45.5 18t45 -18.5t18 -44.5v-561q0 -49 19.5 -93.5t52.5 -77t77 -51t93 -18.5t92 18.5t75 49t51.5 72.5t21.5 89v572q0 27 18 45t45 18t45.5 -18.5t18.5 -44.5v-867q0 -27 -18.5 -45t-45.5 -18t-45 18.5t-18 44.5v27q-47 -41 -108.5 -65.5 t-131.5 -24.5q-76 0 -143.5 28.5t-117.5 79t-79 118t-29 143.5zM65 1151.5q0 26.5 19 44.5l284 273q18 18 45 18t46 -18l2 -2l284 -266q18 -18 18.5 -45t-18.5 -46q-18 -18 -44.5 -18t-45.5 18l-242 228l-239 -232q-18 -18 -45 -18t-45 18q-19 19 -19 45.5z" />
<glyph unicode="&#xfc;" horiz-adv-x="821" d="M45 369v561q0 27 18.5 45t45.5 18t45 -18.5t18 -44.5v-561q0 -49 19.5 -93.5t52.5 -77t77 -51t93 -18.5t92 18.5t75 49t51.5 72.5t21.5 89v572q0 27 18 45t45 18t45.5 -18.5t18.5 -44.5v-867q0 -27 -18.5 -45t-45.5 -18t-45 18.5t-18 44.5v27q-47 -41 -108.5 -65.5 t-131.5 -24.5q-76 0 -143.5 28.5t-117.5 79t-79 118t-29 143.5zM170 1217q0 35 24.5 59.5t59.5 24.5t59.5 -25t24.5 -59q0 -35 -24.5 -59.5t-59.5 -24.5t-59.5 24.5t-24.5 59.5zM494 1217q0 35 24.5 59.5t59.5 24.5t59.5 -25t24.5 -59q0 -35 -24.5 -59.5t-59.5 -24.5 t-59.5 24.5t-24.5 59.5z" />
<glyph unicode="&#xfd;" horiz-adv-x="870" d="M51 953q8 26 30 36q14 5 27 5q14 0 27 -6q25 -11 32 -32l267 -727l276 727q10 23 35 33q12 5 24 5t23 -5q25 -10 34 -35q4 -12 4 -22q0 -12 -5 -25l-467 -1237q-10 -25 -33 -36q-12 -6 -24 -5q-11 0 -23 4q-25 10 -36 34t-1 48l123 332v4q-86 236 -145.5 398.5t-96 262 t-53 144.5t-16.5 47q-6 14 -6 28q0 11 4 22zM402.5 1145.5q-7.5 23.5 3.5 46.5l170 295q12 23 36.5 29.5t49.5 -7.5q23 -14 28.5 -38.5t-4.5 -47.5l-170 -293q-12 -23 -36.5 -30t-47.5 8q-22 14 -29.5 37.5z" />
<glyph unicode="&#xff;" horiz-adv-x="858" d="M41 953q8 26 30 36q14 5 27 5q14 0 27 -6q25 -11 32 -32l267 -727l276 727q10 23 35 33q12 5 24 5t23 -5q25 -10 34 -35q4 -12 4 -22q0 -12 -5 -25l-467 -1237q-10 -25 -33 -36q-12 -6 -24 -5q-11 0 -23 4q-25 10 -36 34t-1 48l123 332v4q-86 236 -145.5 398.5t-96 262 t-53 144.5t-16.5 47q-6 14 -6 28q0 11 4 22zM201 1219q0 35 24.5 59.5t59.5 24.5t59.5 -25t24.5 -59q0 -35 -24.5 -59.5t-59.5 -24.5t-59.5 24.5t-24.5 59.5zM525 1219q0 35 24.5 59.5t59.5 24.5t59.5 -25t24.5 -59q0 -35 -24.5 -59.5t-59.5 -24.5t-59.5 24.5t-24.5 59.5z " />
<glyph unicode="&#x131;" d="M59 63v855q0 27 18.5 45t45.5 18t45 -18.5t18 -44.5v-855q0 -27 -18 -45t-45 -18t-45.5 18t-18.5 45z" />
<glyph unicode="&#x152;" horiz-adv-x="2004" d="M51 651q0 135 51 254t139 208t207 140.5t254 51.5t254 -51.5t208 -140.5t140 -208t51 -254t-51 -253.5t-140 -207t-208 -139.5t-254 -51t-254 51t-207 139.5t-139 207t-51 253.5zM178 651q0 -109 41 -205t111.5 -166.5t167 -111.5t204.5 -41q109 0 205 41t168 111.5 t113 167t41 204.5q0 109 -41 205t-113 168t-168 113t-205 41t-205 -41t-166.5 -113t-111.5 -168t-41 -205zM1223 63v1182q0 27 18.5 45.5t44.5 18.5h623q27 0 45 -18.5t18 -45.5t-18 -45t-45 -18h-559v-457h373q27 0 45 -18.5t18 -44.5q0 -27 -18.5 -45.5t-44.5 -18.5h-373 v-471h559q27 0 45 -18.5t18 -45.5t-18 -45t-45 -18h-623q-27 0 -45 18t-18 45z" />
<glyph unicode="&#x153;" horiz-adv-x="1925" d="M35 494q0 102 38 191t104.5 155.5t157.5 106.5t198 44q98 0 187 -40t156.5 -107.5t107.5 -157.5t40 -192q0 -100 -39 -189.5t-105.5 -157t-156.5 -106.5t-195 -39q-102 0 -191 37t-156.5 102.5t-106.5 156t-39 196.5zM162 494q0 -76 28.5 -142.5t79 -117t117 -79 t141.5 -28.5q76 0 143.5 28.5t118 79t79 117t28.5 142.5t-28.5 143.5t-79 117.5t-118 78.5t-143.5 28.5t-142 -28.5t-116.5 -78.5t-79 -117.5t-28.5 -143.5zM899 494q0 102 38 191t104.5 155.5t157.5 106.5t197 44q98 0 185.5 -39t155 -104.5t107.5 -153.5t44 -188 q1 -6 1 -11q0 -27 -18 -42q-22 -18 -46 -19h-795q10 -66 43 -122t81 -97t109.5 -64.5t128.5 -23.5q76 0 141.5 27.5t116.5 76.5q18 18 45 18.5t46 -18.5q18 -18 18 -44.5t-18 -45.5q-68 -76 -153 -107.5t-196 -31.5q-102 0 -191 37t-156.5 102.5t-106.5 156t-39 196.5z M1032 561h723q-12 63 -45 118.5t-81 95.5t-108.5 63.5t-128.5 23.5t-128 -23.5t-108 -63.5t-80 -95.5t-44 -118.5z" />
<glyph unicode="&#x178;" horiz-adv-x="1038" d="M59 1255q5 25 27 41q17 12 36 13q6 0 11 -1q25 -5 41 -28l344 -514l344 514q16 23 41 28q6 1 12 1q18 0 36 -13q23 -14 27 -40q1 -7 1 -13q0 -18 -10 -35l-387 -575v-570q0 -27 -18.5 -45t-45.5 -18t-45 18.5t-18 44.5v570l-385 575q-12 17 -13 36q1 5 2 11zM256 1518 q0 35 24.5 59.5t59.5 24.5t59.5 -25t24.5 -59q0 -35 -24.5 -59.5t-59.5 -24.5t-59.5 24.5t-24.5 59.5zM580 1518q0 35 24.5 59.5t59.5 24.5t59.5 -25t24.5 -59q0 -35 -24.5 -59.5t-59.5 -24.5t-59.5 24.5t-24.5 59.5z" />
<glyph unicode="&#x2c6;" horiz-adv-x="804" d="M55 1425.5q0 26.5 19 44.5l284 273q18 18 45 18t46 -18l2 -2l284 -266q18 -18 18.5 -45t-18.5 -46q-18 -18 -44.5 -18t-45.5 18l-242 228l-239 -232q-18 -18 -45 -18t-45 18q-19 19 -19 45.5z" />
<glyph unicode="&#x2dc;" horiz-adv-x="913" d="M47 1116.5q0 26.5 19 44.5q20 27 47.5 55.5t58.5 52t65.5 39t71.5 15.5q43 0 85 -24.5t82 -54.5t75 -54.5t63 -24.5q23 0 45.5 13.5t41 32t33 38t22.5 33.5q14 20 36.5 26.5t43.5 -5.5q23 -14 27.5 -38t-7.5 -44q-16 -33 -40.5 -65t-56.5 -56.5t-69 -38.5t-76 -14 q-43 0 -81.5 24.5t-76.5 53t-74 53t-73 24.5q-25 0 -47 -12t-42.5 -30.5t-37 -39t-30.5 -37.5q-14 -20 -38 -23t-44 13q-23 17 -23 43.5z" />
<glyph unicode="&#x2000;" horiz-adv-x="1024" />
<glyph unicode="&#x2001;" horiz-adv-x="2048" />
<glyph unicode="&#x2002;" horiz-adv-x="1024" />
<glyph unicode="&#x2003;" horiz-adv-x="2048" />
<glyph unicode="&#x2004;" horiz-adv-x="681" />
<glyph unicode="&#x2005;" horiz-adv-x="512" />
<glyph unicode="&#x2006;" horiz-adv-x="339" />
<glyph unicode="&#x2007;" horiz-adv-x="339" />
<glyph unicode="&#x2008;" horiz-adv-x="256" />
<glyph unicode="&#x2009;" horiz-adv-x="409" />
<glyph unicode="&#x200a;" horiz-adv-x="112" />
<glyph unicode="&#x2010;" horiz-adv-x="868" d="M55 637q0 27 18.5 45t45.5 18h631q27 0 45 -18t18 -45t-18.5 -45.5t-44.5 -18.5h-631q-27 0 -45.5 18.5t-18.5 45.5z" />
<glyph unicode="&#x2011;" horiz-adv-x="868" d="M55 637q0 27 18.5 45t45.5 18h631q27 0 45 -18t18 -45t-18.5 -45.5t-44.5 -18.5h-631q-27 0 -45.5 18.5t-18.5 45.5z" />
<glyph unicode="&#x2012;" horiz-adv-x="868" d="M55 637q0 27 18.5 45t45.5 18h631q27 0 45 -18t18 -45t-18.5 -45.5t-44.5 -18.5h-631q-27 0 -45.5 18.5t-18.5 45.5z" />
<glyph unicode="&#x2013;" horiz-adv-x="868" d="M55 637q0 27 18.5 45t45.5 18h631q27 0 45 -18t18 -45t-18.5 -45.5t-44.5 -18.5h-631q-27 0 -45.5 18.5t-18.5 45.5z" />
<glyph unicode="&#x2014;" horiz-adv-x="1062" d="M55 637q0 27 18.5 45t45.5 18h825q27 0 45.5 -18t18.5 -45t-18.5 -45.5t-45.5 -18.5h-825q-27 0 -45.5 18.5t-18.5 45.5z" />
<glyph unicode="&#x2018;" horiz-adv-x="333" d="M23.5 1256.5q7.5 23.5 29.5 39.5q23 12 48.5 5t37.5 -29l168 -293q10 -23 3 -48.5t-29 -37.5q-23 -14 -48.5 -7t-37.5 32l-166 292q-13 23 -5.5 46.5z" />
<glyph unicode="&#x2019;" horiz-adv-x="335" d="M23.5 930.5q-7.5 23.5 5.5 46.5l166 293q12 25 37.5 32t48.5 -8q23 -12 29.5 -37.5t-3.5 -48.5l-168 -293q-12 -23 -37.5 -29.5t-48.5 5.5q-22 16 -29.5 39.5z" />
<glyph unicode="&#x201a;" horiz-adv-x="231" d="M18 -371q0 2 1 9.5t7.5 42t19.5 109.5t38 212q4 25 20.5 44.5t42.5 19.5q27 0 45.5 -18.5t18.5 -45.5q0 -4 -3 -14.5t-15.5 -46t-38 -108.5t-72.5 -204q-10 -31 -33 -30q-31 -1 -31 30z" />
<glyph unicode="&#x201c;" horiz-adv-x="770" d="M44 928.5q-7 23.5 5 46.5l166 293q12 25 38 32t48 -8q23 -12 30 -37.5t-3 -48.5l-168 -293q-12 -23 -38 -29.5t-48 5.5q-23 16 -30 39.5zM439 928.5q-7 23.5 5 46.5l166 293q12 25 38 32t48 -8q23 -12 30 -37.5t-3 -48.5l-168 -293q-12 -23 -37.5 -29.5t-48.5 5.5 q-23 16 -30 39.5z" />
<glyph unicode="&#x201d;" horiz-adv-x="770" d="M44 928.5q-7 23.5 5 46.5l166 293q12 25 38 32t48 -8q23 -12 30 -37.5t-3 -48.5l-168 -293q-12 -23 -38 -29.5t-48 5.5q-23 16 -30 39.5zM439 928.5q-7 23.5 5 46.5l166 293q12 25 38 32t48 -8q23 -12 30 -37.5t-3 -48.5l-168 -293q-12 -23 -37.5 -29.5t-48.5 5.5 q-23 16 -30 39.5z" />
<glyph unicode="&#x201e;" horiz-adv-x="653" d="M41 -371q0 2 1 9.5t7 42t19.5 109.5t37.5 212q4 25 20.5 44.5t43.5 19.5t45 -18.5t18 -45.5q0 -4 -3 -14.5t-15 -46t-37.5 -108.5t-73.5 -204q-10 -31 -32 -30q-31 -1 -31 30zM418 -371q0 2 1 9.5t7 42t19.5 109.5t37.5 212q4 25 20.5 44.5t43.5 19.5t45 -18.5t18 -45.5 q0 -4 -3 -14.5t-15 -46t-38 -108.5t-73 -204q-10 -31 -32 -30q-31 -1 -31 30z" />
<glyph unicode="&#x2022;" horiz-adv-x="397" d="M39 494q0 68 48 113.5t110 45.5q37 0 66.5 -14t51 -37.5t32.5 -52.5t11 -55q0 -66 -48 -112t-113 -46q-66 0 -112 46t-46 112z" />
<glyph unicode="&#x2026;" horiz-adv-x="1064" d="M53 84q0 35 24.5 59.5t59.5 24.5t59.5 -24.5t24.5 -59.5t-24.5 -59.5t-59.5 -24.5t-59.5 24.5t-24.5 59.5zM449 84q0 35 24.5 59.5t58.5 24.5q35 0 59.5 -24.5t24.5 -59.5t-24.5 -59.5t-59.5 -24.5t-59 24.5t-24 59.5zM844 84q0 35 24.5 59.5t59.5 24.5t59.5 -24.5 t24.5 -59.5t-24.5 -59.5t-59.5 -24.5t-59.5 24.5t-24.5 59.5z" />
<glyph unicode="&#x202f;" horiz-adv-x="409" />
<glyph unicode="&#x2039;" horiz-adv-x="628" d="M31 485.5q0 26.5 18 44.5l438 412q18 18 45 18.5t46 -18.5q18 -18 18 -45t-18 -45l-392 -367l392 -372q18 -18 18 -45t-18 -45t-45 -18.5t-46 18.5l-436 415l-2 2q-18 19 -18 45.5z" />
<glyph unicode="&#x203a;" horiz-adv-x="626" d="M31 67.5q0 26.5 18 45.5l391 372l-391 367q-18 18 -18 45t18 45t45 18.5t45 -18.5l439 -412q18 -18 18 -44.5t-18 -45.5l-3 -2l-436 -415q-18 -18 -44.5 -18.5t-45.5 18.5q-18 18 -18 44.5z" />
<glyph unicode="&#x205f;" horiz-adv-x="512" />
<glyph unicode="&#x20ac;" horiz-adv-x="1075" d="M37 498q0 27 18.5 45t44.5 18h39v191h-39q-27 0 -45 18t-18 45t18.5 45.5t44.5 18.5h39q6 92 45 174t103.5 141t147.5 94t179 35q131 0 241 -65.5t171 -172.5q12 -23 7 -49t-27 -41q-23 -12 -48.5 -6t-42.5 31q-45 78 -124.5 127t-176.5 49q-68 0 -129 -24.5t-107 -67.5 t-76 -101.5t-36 -123.5h213q27 0 45.5 -18.5t18.5 -45.5t-18.5 -45t-45.5 -18h-213v-191h213q27 0 45.5 -18.5t18.5 -44.5q0 -27 -18.5 -45.5t-45.5 -18.5h-213q6 -68 35 -126t76 -102t107.5 -68.5t129.5 -24.5q98 0 178 48t126 126q14 23 39.5 29t48.5 -7 q23 -14 28.5 -40.5t-8.5 -51.5q-61 -104 -171 -167.5t-241 -63.5q-96 0 -180 34.5t-147.5 95t-102.5 142.5t-45 176h-39q-27 0 -45 18.5t-18 45.5z" />
<glyph unicode="&#x2122;" horiz-adv-x="1652" d="M49 1249q0 27 18.5 45.5t45.5 18.5h401q27 0 45.5 -18.5t18.5 -45.5t-18.5 -45t-45.5 -18h-137v-408q0 -27 -18.5 -45t-45.5 -18t-45 18.5t-18 44.5v408h-137q-27 0 -45.5 18t-18.5 45zM651 776v268q0 55 20.5 104.5t57.5 86.5t86 58.5t105 21.5q61 0 115.5 -25.5 t90.5 -70.5q37 43 90.5 69.5t116.5 26.5q55 0 104.5 -21.5t86.5 -58.5t57.5 -86t20.5 -105v-268q0 -27 -18.5 -45t-45.5 -18t-45 18.5t-18 44.5v275q-6 61 -46 99t-96 38q-59 0 -100 -42t-43 -102v-268q0 -27 -18.5 -45t-45.5 -18t-45 18.5t-18 44.5v275q-4 59 -45 98 t-98 39q-59 0 -99.5 -40t-42.5 -97v-275q0 -27 -18.5 -45t-44.5 -18q-27 0 -45.5 18t-18.5 45z" />
<glyph unicode="&#xe000;" horiz-adv-x="990" d="M0 990h990v-990h-990v990z" />
<glyph unicode="&#xfb01;" horiz-adv-x="743" d="M543 1225q0 35 24.5 59.5t59.5 24.5t59.5 -24.5t24.5 -59.5t-24.5 -59.5t-59.5 -24.5t-59.5 24.5t-24.5 59.5zM563 63v869q0 27 18.5 45t45.5 18t45 -18.5t18 -44.5v-869q0 -27 -18.5 -45t-44.5 -18q-27 0 -45.5 18t-18.5 45zM14 932q0 27 18.5 45t45.5 18h84v43 q0 55 20.5 104.5t57 86.5t86 58.5t106.5 21.5q27 0 45.5 -18.5t18.5 -45.5t-18.5 -45t-45.5 -18q-59 0 -101 -42t-42 -102v-43h139q27 0 45.5 -18.5t18.5 -44.5q0 -27 -18.5 -45.5t-45.5 -18.5h-139v-805q0 -27 -18.5 -45t-45.5 -18t-45 18.5t-18 44.5v805h-84 q-27 0 -45.5 18.5t-18.5 45.5z" />
<glyph unicode="&#xfb02;" horiz-adv-x="757" d="M569 63v1182q0 27 18.5 45.5t45.5 18.5t45 -18.5t18 -45.5v-1182q0 -27 -18 -45t-45 -18t-45.5 18t-18.5 45zM14 932q0 27 18.5 45t45.5 18h84v43q0 55 20.5 104.5t57 86.5t86 58.5t106.5 21.5q27 0 45.5 -18.5t18.5 -45.5t-18.5 -45t-45.5 -18q-59 0 -101 -42t-42 -102 v-43h139q27 0 45.5 -18.5t18.5 -44.5q0 -27 -18.5 -45.5t-45.5 -18.5h-139v-805q0 -27 -18.5 -45t-45.5 -18t-45 18.5t-18 44.5v805h-84q-27 0 -45.5 18.5t-18.5 45.5z" />
<glyph unicode="&#xfb03;" horiz-adv-x="1253" d="M1053 1225q0 35 24.5 59.5t59.5 24.5t59.5 -24.5t24.5 -59.5t-24.5 -59.5t-59.5 -24.5t-59.5 24.5t-24.5 59.5zM1073 63v869q0 27 18.5 45t45.5 18t45 -18.5t18 -44.5v-869q0 -27 -18.5 -45t-44.5 -18q-27 0 -45.5 18t-18.5 45zM524 932q0 27 18.5 45t45.5 18h84v43 q0 55 20.5 104.5t57 86.5t86 58.5t106.5 21.5q27 0 45.5 -18.5t18.5 -45.5t-18.5 -45t-45.5 -18q-59 0 -101 -42t-42 -102v-43h139q27 0 45.5 -18.5t18.5 -44.5q0 -27 -18.5 -45.5t-45.5 -18.5h-139v-805q0 -27 -18.5 -45t-45.5 -18t-45 18.5t-18 44.5v805h-84 q-27 0 -45.5 18.5t-18.5 45.5zM14 932q0 27 18.5 45t45.5 18h84v43q0 55 20.5 104.5t57 86.5t86 58.5t106.5 21.5q27 0 45.5 -18.5t18.5 -45.5t-18.5 -45t-45.5 -18q-59 0 -101 -42t-42 -102v-43h139q27 0 45.5 -18.5t18.5 -44.5q0 -27 -18.5 -45.5t-45.5 -18.5h-139v-805 q0 -27 -18.5 -45t-45.5 -18t-45 18.5t-18 44.5v805h-84q-27 0 -45.5 18.5t-18.5 45.5z" />
<glyph unicode="&#xfb04;" horiz-adv-x="1267" d="M1079 63v1182q0 27 18.5 45.5t45.5 18.5t45 -18.5t18 -45.5v-1182q0 -27 -18 -45t-45 -18t-45.5 18t-18.5 45zM524 932q0 27 18.5 45t45.5 18h84v43q0 55 20.5 104.5t57 86.5t86 58.5t106.5 21.5q27 0 45.5 -18.5t18.5 -45.5t-18.5 -45t-45.5 -18q-59 0 -101 -42 t-42 -102v-43h139q27 0 45.5 -18.5t18.5 -44.5q0 -27 -18.5 -45.5t-45.5 -18.5h-139v-805q0 -27 -18.5 -45t-45.5 -18t-45 18.5t-18 44.5v805h-84q-27 0 -45.5 18.5t-18.5 45.5zM14 932q0 27 18.5 45t45.5 18h84v43q0 55 20.5 104.5t57 86.5t86 58.5t106.5 21.5 q27 0 45.5 -18.5t18.5 -45.5t-18.5 -45t-45.5 -18q-59 0 -101 -42t-42 -102v-43h139q27 0 45.5 -18.5t18.5 -44.5q0 -27 -18.5 -45.5t-45.5 -18.5h-139v-805q0 -27 -18.5 -45t-45.5 -18t-45 18.5t-18 44.5v805h-84q-27 0 -45.5 18.5t-18.5 45.5z" />
</font>
</defs>
</svg>
